<?xml version="1.0" encoding="utf-8" standalone="no"?>
<!DOCTYPE svg PUBLIC "-//W3C//DTD SVG 1.1//EN"
  "http://www.w3.org/Graphics/SVG/1.1/DTD/svg11.dtd">
<svg xmlns:xlink="http://www.w3.org/1999/xlink" width="460.8pt" height="345.6pt" viewBox="0 0 460.8 345.6" xmlns="http://www.w3.org/2000/svg" version="1.1">
 <metadata>
  <rdf:RDF xmlns:dc="http://purl.org/dc/elements/1.1/" xmlns:cc="http://creativecommons.org/ns#" xmlns:rdf="http://www.w3.org/1999/02/22-rdf-syntax-ns#">
   <cc:Work>
    <dc:type rdf:resource="http://purl.org/dc/dcmitype/StillImage"/>
    <dc:date>2022-03-31T21:53:21.298442</dc:date>
    <dc:format>image/svg+xml</dc:format>
    <dc:creator>
     <cc:Agent>
      <dc:title>Matplotlib v3.5.1, https://matplotlib.org/</dc:title>
     </cc:Agent>
    </dc:creator>
   </cc:Work>
  </rdf:RDF>
 </metadata>
 <defs>
  <style type="text/css">*{stroke-linejoin: round; stroke-linecap: butt}</style>
 </defs>
 <g id="figure_1">
  <g id="patch_1">
   <path d="M 0 345.6 
L 460.8 345.6 
L 460.8 0 
L 0 0 
z
" style="fill: #ffffff"/>
  </g>
  <g id="axes_1">
   <g id="patch_2">
    <path d="M 57.6 307.584 
L 414.72 307.584 
L 414.72 41.472 
L 57.6 41.472 
z
" style="fill: #ffffff"/>
   </g>
   <g id="matplotlib.axis_1">
    <g id="xtick_1">
     <g id="line2d_1">
      <defs>
       <path id="m3e86889596" d="M 0 0 
L 0 3.5 
" style="stroke: #000000; stroke-width: 0.8"/>
      </defs>
      <g>
       <use xlink:href="#m3e86889596" x="73.641642" y="307.584" style="stroke: #000000; stroke-width: 0.8"/>
      </g>
     </g>
     <g id="text_1">
      <!-- 10 -->
      <g transform="translate(67.279142 322.182437)scale(0.1 -0.1)">
       <defs>
        <path id="DejaVuSans-31" d="M 794 531 
L 1825 531 
L 1825 4091 
L 703 3866 
L 703 4441 
L 1819 4666 
L 2450 4666 
L 2450 531 
L 3481 531 
L 3481 0 
L 794 0 
L 794 531 
z
" transform="scale(0.015625)"/>
        <path id="DejaVuSans-30" d="M 2034 4250 
Q 1547 4250 1301 3770 
Q 1056 3291 1056 2328 
Q 1056 1369 1301 889 
Q 1547 409 2034 409 
Q 2525 409 2770 889 
Q 3016 1369 3016 2328 
Q 3016 3291 2770 3770 
Q 2525 4250 2034 4250 
z
M 2034 4750 
Q 2819 4750 3233 4129 
Q 3647 3509 3647 2328 
Q 3647 1150 3233 529 
Q 2819 -91 2034 -91 
Q 1250 -91 836 529 
Q 422 1150 422 2328 
Q 422 3509 836 4129 
Q 1250 4750 2034 4750 
z
" transform="scale(0.015625)"/>
       </defs>
       <use xlink:href="#DejaVuSans-31"/>
       <use xlink:href="#DejaVuSans-30" x="63.623047"/>
      </g>
     </g>
    </g>
    <g id="xtick_2">
     <g id="line2d_2">
      <g>
       <use xlink:href="#m3e86889596" x="121.413058" y="307.584" style="stroke: #000000; stroke-width: 0.8"/>
      </g>
     </g>
     <g id="text_2">
      <!-- 15 -->
      <g transform="translate(115.050558 322.182437)scale(0.1 -0.1)">
       <defs>
        <path id="DejaVuSans-35" d="M 691 4666 
L 3169 4666 
L 3169 4134 
L 1269 4134 
L 1269 2991 
Q 1406 3038 1543 3061 
Q 1681 3084 1819 3084 
Q 2600 3084 3056 2656 
Q 3513 2228 3513 1497 
Q 3513 744 3044 326 
Q 2575 -91 1722 -91 
Q 1428 -91 1123 -41 
Q 819 9 494 109 
L 494 744 
Q 775 591 1075 516 
Q 1375 441 1709 441 
Q 2250 441 2565 725 
Q 2881 1009 2881 1497 
Q 2881 1984 2565 2268 
Q 2250 2553 1709 2553 
Q 1456 2553 1204 2497 
Q 953 2441 691 2322 
L 691 4666 
z
" transform="scale(0.015625)"/>
       </defs>
       <use xlink:href="#DejaVuSans-31"/>
       <use xlink:href="#DejaVuSans-35" x="63.623047"/>
      </g>
     </g>
    </g>
    <g id="xtick_3">
     <g id="line2d_3">
      <g>
       <use xlink:href="#m3e86889596" x="169.184474" y="307.584" style="stroke: #000000; stroke-width: 0.8"/>
      </g>
     </g>
     <g id="text_3">
      <!-- 20 -->
      <g transform="translate(162.821974 322.182437)scale(0.1 -0.1)">
       <defs>
        <path id="DejaVuSans-32" d="M 1228 531 
L 3431 531 
L 3431 0 
L 469 0 
L 469 531 
Q 828 903 1448 1529 
Q 2069 2156 2228 2338 
Q 2531 2678 2651 2914 
Q 2772 3150 2772 3378 
Q 2772 3750 2511 3984 
Q 2250 4219 1831 4219 
Q 1534 4219 1204 4116 
Q 875 4013 500 3803 
L 500 4441 
Q 881 4594 1212 4672 
Q 1544 4750 1819 4750 
Q 2544 4750 2975 4387 
Q 3406 4025 3406 3419 
Q 3406 3131 3298 2873 
Q 3191 2616 2906 2266 
Q 2828 2175 2409 1742 
Q 1991 1309 1228 531 
z
" transform="scale(0.015625)"/>
       </defs>
       <use xlink:href="#DejaVuSans-32"/>
       <use xlink:href="#DejaVuSans-30" x="63.623047"/>
      </g>
     </g>
    </g>
    <g id="xtick_4">
     <g id="line2d_4">
      <g>
       <use xlink:href="#m3e86889596" x="216.955891" y="307.584" style="stroke: #000000; stroke-width: 0.8"/>
      </g>
     </g>
     <g id="text_4">
      <!-- 25 -->
      <g transform="translate(210.593391 322.182437)scale(0.1 -0.1)">
       <use xlink:href="#DejaVuSans-32"/>
       <use xlink:href="#DejaVuSans-35" x="63.623047"/>
      </g>
     </g>
    </g>
    <g id="xtick_5">
     <g id="line2d_5">
      <g>
       <use xlink:href="#m3e86889596" x="264.727307" y="307.584" style="stroke: #000000; stroke-width: 0.8"/>
      </g>
     </g>
     <g id="text_5">
      <!-- 30 -->
      <g transform="translate(258.364807 322.182437)scale(0.1 -0.1)">
       <defs>
        <path id="DejaVuSans-33" d="M 2597 2516 
Q 3050 2419 3304 2112 
Q 3559 1806 3559 1356 
Q 3559 666 3084 287 
Q 2609 -91 1734 -91 
Q 1441 -91 1130 -33 
Q 819 25 488 141 
L 488 750 
Q 750 597 1062 519 
Q 1375 441 1716 441 
Q 2309 441 2620 675 
Q 2931 909 2931 1356 
Q 2931 1769 2642 2001 
Q 2353 2234 1838 2234 
L 1294 2234 
L 1294 2753 
L 1863 2753 
Q 2328 2753 2575 2939 
Q 2822 3125 2822 3475 
Q 2822 3834 2567 4026 
Q 2313 4219 1838 4219 
Q 1578 4219 1281 4162 
Q 984 4106 628 3988 
L 628 4550 
Q 988 4650 1302 4700 
Q 1616 4750 1894 4750 
Q 2613 4750 3031 4423 
Q 3450 4097 3450 3541 
Q 3450 3153 3228 2886 
Q 3006 2619 2597 2516 
z
" transform="scale(0.015625)"/>
       </defs>
       <use xlink:href="#DejaVuSans-33"/>
       <use xlink:href="#DejaVuSans-30" x="63.623047"/>
      </g>
     </g>
    </g>
    <g id="xtick_6">
     <g id="line2d_6">
      <g>
       <use xlink:href="#m3e86889596" x="312.498723" y="307.584" style="stroke: #000000; stroke-width: 0.8"/>
      </g>
     </g>
     <g id="text_6">
      <!-- 35 -->
      <g transform="translate(306.136223 322.182437)scale(0.1 -0.1)">
       <use xlink:href="#DejaVuSans-33"/>
       <use xlink:href="#DejaVuSans-35" x="63.623047"/>
      </g>
     </g>
    </g>
    <g id="xtick_7">
     <g id="line2d_7">
      <g>
       <use xlink:href="#m3e86889596" x="360.27014" y="307.584" style="stroke: #000000; stroke-width: 0.8"/>
      </g>
     </g>
     <g id="text_7">
      <!-- 40 -->
      <g transform="translate(353.90764 322.182437)scale(0.1 -0.1)">
       <defs>
        <path id="DejaVuSans-34" d="M 2419 4116 
L 825 1625 
L 2419 1625 
L 2419 4116 
z
M 2253 4666 
L 3047 4666 
L 3047 1625 
L 3713 1625 
L 3713 1100 
L 3047 1100 
L 3047 0 
L 2419 0 
L 2419 1100 
L 313 1100 
L 313 1709 
L 2253 4666 
z
" transform="scale(0.015625)"/>
       </defs>
       <use xlink:href="#DejaVuSans-34"/>
       <use xlink:href="#DejaVuSans-30" x="63.623047"/>
      </g>
     </g>
    </g>
    <g id="xtick_8">
     <g id="line2d_8">
      <g>
       <use xlink:href="#m3e86889596" x="408.041556" y="307.584" style="stroke: #000000; stroke-width: 0.8"/>
      </g>
     </g>
     <g id="text_8">
      <!-- 45 -->
      <g transform="translate(401.679056 322.182437)scale(0.1 -0.1)">
       <use xlink:href="#DejaVuSans-34"/>
       <use xlink:href="#DejaVuSans-35" x="63.623047"/>
      </g>
     </g>
    </g>
    <g id="text_9">
     <!-- x [m] -->
     <g transform="translate(222.839687 335.860562)scale(0.1 -0.1)">
      <defs>
       <path id="DejaVuSans-78" d="M 3513 3500 
L 2247 1797 
L 3578 0 
L 2900 0 
L 1881 1375 
L 863 0 
L 184 0 
L 1544 1831 
L 300 3500 
L 978 3500 
L 1906 2253 
L 2834 3500 
L 3513 3500 
z
" transform="scale(0.015625)"/>
       <path id="DejaVuSans-20" transform="scale(0.015625)"/>
       <path id="DejaVuSans-5b" d="M 550 4863 
L 1875 4863 
L 1875 4416 
L 1125 4416 
L 1125 -397 
L 1875 -397 
L 1875 -844 
L 550 -844 
L 550 4863 
z
" transform="scale(0.015625)"/>
       <path id="DejaVuSans-6d" d="M 3328 2828 
Q 3544 3216 3844 3400 
Q 4144 3584 4550 3584 
Q 5097 3584 5394 3201 
Q 5691 2819 5691 2113 
L 5691 0 
L 5113 0 
L 5113 2094 
Q 5113 2597 4934 2840 
Q 4756 3084 4391 3084 
Q 3944 3084 3684 2787 
Q 3425 2491 3425 1978 
L 3425 0 
L 2847 0 
L 2847 2094 
Q 2847 2600 2669 2842 
Q 2491 3084 2119 3084 
Q 1678 3084 1418 2786 
Q 1159 2488 1159 1978 
L 1159 0 
L 581 0 
L 581 3500 
L 1159 3500 
L 1159 2956 
Q 1356 3278 1631 3431 
Q 1906 3584 2284 3584 
Q 2666 3584 2933 3390 
Q 3200 3197 3328 2828 
z
" transform="scale(0.015625)"/>
       <path id="DejaVuSans-5d" d="M 1947 4863 
L 1947 -844 
L 622 -844 
L 622 -397 
L 1369 -397 
L 1369 4416 
L 622 4416 
L 622 4863 
L 1947 4863 
z
" transform="scale(0.015625)"/>
      </defs>
      <use xlink:href="#DejaVuSans-78"/>
      <use xlink:href="#DejaVuSans-20" x="59.179688"/>
      <use xlink:href="#DejaVuSans-5b" x="90.966797"/>
      <use xlink:href="#DejaVuSans-6d" x="129.980469"/>
      <use xlink:href="#DejaVuSans-5d" x="227.392578"/>
     </g>
    </g>
   </g>
   <g id="matplotlib.axis_2">
    <g id="ytick_1">
     <g id="line2d_9">
      <defs>
       <path id="m626372169f" d="M 0 0 
L -3.5 0 
" style="stroke: #000000; stroke-width: 0.8"/>
      </defs>
      <g>
       <use xlink:href="#m626372169f" x="57.6" y="303.320704" style="stroke: #000000; stroke-width: 0.8"/>
      </g>
     </g>
     <g id="text_10">
      <!-- 0.2 -->
      <g transform="translate(34.696875 307.119923)scale(0.1 -0.1)">
       <defs>
        <path id="DejaVuSans-2e" d="M 684 794 
L 1344 794 
L 1344 0 
L 684 0 
L 684 794 
z
" transform="scale(0.015625)"/>
       </defs>
       <use xlink:href="#DejaVuSans-30"/>
       <use xlink:href="#DejaVuSans-2e" x="63.623047"/>
       <use xlink:href="#DejaVuSans-32" x="95.410156"/>
      </g>
     </g>
    </g>
    <g id="ytick_2">
     <g id="line2d_10">
      <g>
       <use xlink:href="#m626372169f" x="57.6" y="256.277437" style="stroke: #000000; stroke-width: 0.8"/>
      </g>
     </g>
     <g id="text_11">
      <!-- 0.4 -->
      <g transform="translate(34.696875 260.076656)scale(0.1 -0.1)">
       <use xlink:href="#DejaVuSans-30"/>
       <use xlink:href="#DejaVuSans-2e" x="63.623047"/>
       <use xlink:href="#DejaVuSans-34" x="95.410156"/>
      </g>
     </g>
    </g>
    <g id="ytick_3">
     <g id="line2d_11">
      <g>
       <use xlink:href="#m626372169f" x="57.6" y="209.23417" style="stroke: #000000; stroke-width: 0.8"/>
      </g>
     </g>
     <g id="text_12">
      <!-- 0.6 -->
      <g transform="translate(34.696875 213.033389)scale(0.1 -0.1)">
       <defs>
        <path id="DejaVuSans-36" d="M 2113 2584 
Q 1688 2584 1439 2293 
Q 1191 2003 1191 1497 
Q 1191 994 1439 701 
Q 1688 409 2113 409 
Q 2538 409 2786 701 
Q 3034 994 3034 1497 
Q 3034 2003 2786 2293 
Q 2538 2584 2113 2584 
z
M 3366 4563 
L 3366 3988 
Q 3128 4100 2886 4159 
Q 2644 4219 2406 4219 
Q 1781 4219 1451 3797 
Q 1122 3375 1075 2522 
Q 1259 2794 1537 2939 
Q 1816 3084 2150 3084 
Q 2853 3084 3261 2657 
Q 3669 2231 3669 1497 
Q 3669 778 3244 343 
Q 2819 -91 2113 -91 
Q 1303 -91 875 529 
Q 447 1150 447 2328 
Q 447 3434 972 4092 
Q 1497 4750 2381 4750 
Q 2619 4750 2861 4703 
Q 3103 4656 3366 4563 
z
" transform="scale(0.015625)"/>
       </defs>
       <use xlink:href="#DejaVuSans-30"/>
       <use xlink:href="#DejaVuSans-2e" x="63.623047"/>
       <use xlink:href="#DejaVuSans-36" x="95.410156"/>
      </g>
     </g>
    </g>
    <g id="ytick_4">
     <g id="line2d_12">
      <g>
       <use xlink:href="#m626372169f" x="57.6" y="162.190903" style="stroke: #000000; stroke-width: 0.8"/>
      </g>
     </g>
     <g id="text_13">
      <!-- 0.8 -->
      <g transform="translate(34.696875 165.990122)scale(0.1 -0.1)">
       <defs>
        <path id="DejaVuSans-38" d="M 2034 2216 
Q 1584 2216 1326 1975 
Q 1069 1734 1069 1313 
Q 1069 891 1326 650 
Q 1584 409 2034 409 
Q 2484 409 2743 651 
Q 3003 894 3003 1313 
Q 3003 1734 2745 1975 
Q 2488 2216 2034 2216 
z
M 1403 2484 
Q 997 2584 770 2862 
Q 544 3141 544 3541 
Q 544 4100 942 4425 
Q 1341 4750 2034 4750 
Q 2731 4750 3128 4425 
Q 3525 4100 3525 3541 
Q 3525 3141 3298 2862 
Q 3072 2584 2669 2484 
Q 3125 2378 3379 2068 
Q 3634 1759 3634 1313 
Q 3634 634 3220 271 
Q 2806 -91 2034 -91 
Q 1263 -91 848 271 
Q 434 634 434 1313 
Q 434 1759 690 2068 
Q 947 2378 1403 2484 
z
M 1172 3481 
Q 1172 3119 1398 2916 
Q 1625 2713 2034 2713 
Q 2441 2713 2670 2916 
Q 2900 3119 2900 3481 
Q 2900 3844 2670 4047 
Q 2441 4250 2034 4250 
Q 1625 4250 1398 4047 
Q 1172 3844 1172 3481 
z
" transform="scale(0.015625)"/>
       </defs>
       <use xlink:href="#DejaVuSans-30"/>
       <use xlink:href="#DejaVuSans-2e" x="63.623047"/>
       <use xlink:href="#DejaVuSans-38" x="95.410156"/>
      </g>
     </g>
    </g>
    <g id="ytick_5">
     <g id="line2d_13">
      <g>
       <use xlink:href="#m626372169f" x="57.6" y="115.147636" style="stroke: #000000; stroke-width: 0.8"/>
      </g>
     </g>
     <g id="text_14">
      <!-- 1.0 -->
      <g transform="translate(34.696875 118.946855)scale(0.1 -0.1)">
       <use xlink:href="#DejaVuSans-31"/>
       <use xlink:href="#DejaVuSans-2e" x="63.623047"/>
       <use xlink:href="#DejaVuSans-30" x="95.410156"/>
      </g>
     </g>
    </g>
    <g id="ytick_6">
     <g id="line2d_14">
      <g>
       <use xlink:href="#m626372169f" x="57.6" y="68.104369" style="stroke: #000000; stroke-width: 0.8"/>
      </g>
     </g>
     <g id="text_15">
      <!-- 1.2 -->
      <g transform="translate(34.696875 71.903588)scale(0.1 -0.1)">
       <use xlink:href="#DejaVuSans-31"/>
       <use xlink:href="#DejaVuSans-2e" x="63.623047"/>
       <use xlink:href="#DejaVuSans-32" x="95.410156"/>
      </g>
     </g>
    </g>
    <g id="text_16">
     <!-- t [s] -->
     <g transform="translate(28.617188 184.583469)rotate(-90)scale(0.1 -0.1)">
      <defs>
       <path id="DejaVuSans-74" d="M 1172 4494 
L 1172 3500 
L 2356 3500 
L 2356 3053 
L 1172 3053 
L 1172 1153 
Q 1172 725 1289 603 
Q 1406 481 1766 481 
L 2356 481 
L 2356 0 
L 1766 0 
Q 1100 0 847 248 
Q 594 497 594 1153 
L 594 3053 
L 172 3053 
L 172 3500 
L 594 3500 
L 594 4494 
L 1172 4494 
z
" transform="scale(0.015625)"/>
       <path id="DejaVuSans-73" d="M 2834 3397 
L 2834 2853 
Q 2591 2978 2328 3040 
Q 2066 3103 1784 3103 
Q 1356 3103 1142 2972 
Q 928 2841 928 2578 
Q 928 2378 1081 2264 
Q 1234 2150 1697 2047 
L 1894 2003 
Q 2506 1872 2764 1633 
Q 3022 1394 3022 966 
Q 3022 478 2636 193 
Q 2250 -91 1575 -91 
Q 1294 -91 989 -36 
Q 684 19 347 128 
L 347 722 
Q 666 556 975 473 
Q 1284 391 1588 391 
Q 1994 391 2212 530 
Q 2431 669 2431 922 
Q 2431 1156 2273 1281 
Q 2116 1406 1581 1522 
L 1381 1569 
Q 847 1681 609 1914 
Q 372 2147 372 2553 
Q 372 3047 722 3315 
Q 1072 3584 1716 3584 
Q 2034 3584 2315 3537 
Q 2597 3491 2834 3397 
z
" transform="scale(0.015625)"/>
      </defs>
      <use xlink:href="#DejaVuSans-74"/>
      <use xlink:href="#DejaVuSans-20" x="39.208984"/>
      <use xlink:href="#DejaVuSans-5b" x="70.996094"/>
      <use xlink:href="#DejaVuSans-73" x="110.009766"/>
      <use xlink:href="#DejaVuSans-5d" x="162.109375"/>
     </g>
    </g>
   </g>
   <g id="line2d_15">
    <path d="M 73.832727 58.556938 
L 74.59707 58.552234 
L 80.902897 60.151705 
L 81.285068 60.203453 
L 81.66724 60.283426 
L 85.680039 60.685646 
L 87.973067 60.377513 
L 88.737409 60.128184 
L 89.119581 60.045858 
L 90.266094 59.702442 
L 90.45718 59.702442 
L 90.839351 59.448408 
L 91.412608 59.349618 
L 91.985865 59.241418 
L 94.087808 58.937989 
L 94.469979 59.01561 
L 96.18975 59.137923 
L 98.100607 59.076767 
L 98.673864 58.942693 
L 99.438206 58.853311 
L 101.157977 58.481669 
L 101.540149 58.418161 
L 102.113406 58.269975 
L 102.304491 58.269975 
L 102.877748 58.006532 
L 103.642091 57.893628 
L 104.406434 57.834824 
L 104.788605 57.738386 
L 105.552948 57.65606 
L 106.31729 57.599608 
L 107.081633 57.371448 
L 107.463804 57.324405 
L 108.037061 57.16681 
L 108.228147 57.16681 
L 108.610318 56.865733 
L 109.183575 56.762238 
L 109.565747 56.527021 
L 109.947918 56.4494 
L 110.521175 56.164788 
L 110.903346 56.070702 
L 115.871574 55.042806 
L 116.827002 55.045159 
L 117.78243 54.86169 
L 119.693287 54.598248 
L 120.075458 54.520626 
L 121.221972 54.421835 
L 121.986315 54.233662 
L 122.177401 54.233662 
L 122.368486 54.607656 
L 122.559572 55.520296 
L 122.750658 55.520296 
L 122.941743 57.147993 
L 123.132829 57.147993 
L 123.515 63.67995 
L 123.706086 63.67995 
L 123.897172 67.511624 
L 124.088257 67.511624 
L 124.470429 78.420958 
L 124.661514 78.420958 
L 124.8526 83.710973 
L 125.043686 83.710973 
L 125.425857 96.887792 
L 125.616943 96.887792 
L 125.999114 110.690287 
L 126.1902 110.690287 
L 126.381285 116.642907 
L 126.572371 116.642907 
L 126.954542 130.160319 
L 127.145628 130.160319 
L 127.336714 135.769523 
L 127.527799 135.769523 
L 127.909971 148.180478 
L 128.101056 148.180478 
L 128.292142 153.215754 
L 128.483228 153.215754 
L 128.865399 164.365949 
L 129.056485 164.365949 
L 129.438656 173.195499 
L 129.629742 173.195499 
L 129.820827 178.660516 
L 130.011913 178.660516 
L 130.394084 186.280819 
L 130.58517 186.280819 
L 130.776256 191.126746 
L 130.967341 191.126746 
L 131.349513 197.854169 
L 131.540598 197.854169 
L 131.92277 204.936297 
L 132.113855 204.936297 
L 132.304941 207.761481 
L 132.496027 207.761481 
L 132.878198 213.870755 
L 133.069284 213.870755 
L 133.451455 218.721386 
L 133.642541 218.721386 
L 133.833626 221.784608 
L 134.024712 221.784608 
L 134.215798 224.052564 
L 134.406883 224.052564 
L 134.789055 229.088311 
L 134.98014 229.088311 
L 135.362312 233.239644 
L 135.553397 233.239644 
L 135.744483 235.882534 
L 135.935569 235.882534 
L 136.31774 240.246738 
L 136.508826 240.246738 
L 136.890997 243.602099 
L 137.082083 243.602099 
L 137.273168 245.58709 
L 137.464254 245.58709 
L 137.846425 248.394162 
L 138.037511 248.394162 
L 138.228597 249.705257 
L 138.419682 249.705257 
L 138.801853 252.620529 
L 138.992939 252.620529 
L 139.184025 254.158608 
L 139.37511 254.158608 
L 139.757282 256.302135 
L 139.948367 256.302135 
L 140.330539 258.643478 
L 140.521624 258.643478 
L 140.71271 259.577287 
L 140.903796 259.577287 
L 141.285967 261.530523 
L 141.477053 261.530523 
L 141.668138 262.683789 
L 141.859224 262.683789 
L 142.241395 264.291728 
L 142.432481 264.291728 
L 142.623567 265.211424 
L 142.814652 265.211424 
L 143.196824 266.539455 
L 143.387909 266.539455 
L 143.770081 268.153275 
L 143.961166 268.153275 
L 144.152252 268.908789 
L 144.343338 268.908789 
L 144.725509 270.749592 
L 144.916595 270.749592 
L 145.10768 271.520396 
L 145.298766 271.520396 
L 145.680937 272.850545 
L 145.872023 272.850545 
L 146.254194 273.570542 
L 146.44528 273.570542 
L 146.636366 274.008985 
L 146.827451 274.008985 
L 147.591794 275.292796 
L 147.78288 275.292796 
L 148.547222 276.886857 
L 148.738308 276.886857 
L 149.120479 277.802554 
L 149.311565 277.802554 
L 149.693736 278.363075 
L 149.884822 278.363075 
L 150.075908 278.593116 
L 150.266993 278.593116 
L 150.649165 278.89584 
L 151.222422 278.985928 
L 151.986764 279.34722 
L 152.17785 279.628539 
L 152.368936 279.628539 
L 152.560021 279.878103 
L 152.751107 279.878103 
L 153.51545 280.778982 
L 153.706535 280.778982 
L 154.088707 281.441586 
L 154.279792 281.441586 
L 154.470878 281.632817 
L 154.661964 281.632817 
L 155.617392 282.221328 
L 155.808478 282.221328 
L 156.190649 282.354461 
L 156.954992 282.798079 
L 157.146077 282.798079 
L 158.101506 283.493613 
L 158.292591 283.493613 
L 158.865848 283.747177 
L 159.439105 283.751175 
L 160.776705 283.463035 
L 161.732133 283.536893 
L 162.878647 284.026614 
L 163.451904 284.088711 
L 164.216247 284.021204 
L 164.598418 283.942406 
L 167.464703 283.672848 
L 168.03796 283.692371 
L 168.420132 283.879839 
L 169.184474 283.966163 
L 170.904245 284.562907 
L 172.624016 284.461529 
L 173.77053 284.046372 
L 174.152702 283.921472 
L 174.917044 283.573822 
L 175.10813 283.573822 
L 175.299216 283.420696 
L 175.490301 283.420696 
L 176.254644 282.748448 
L 176.44573 282.748448 
L 177.401158 281.910372 
L 177.592244 281.910372 
L 177.783329 281.751131 
L 177.974415 281.751131 
L 178.738758 281.310806 
L 178.929843 281.310806 
L 179.312015 281.102169 
L 181.605043 281.15227 
L 182.942642 281.719141 
L 183.324814 282.218506 
L 183.515899 282.218506 
L 183.706985 282.441961 
L 183.898071 282.441961 
L 184.280242 282.823247 
L 184.853499 282.89687 
L 185.23567 283.071871 
L 186.57327 283.003658 
L 187.146527 282.900868 
L 187.528698 282.81031 
L 188.101955 282.547338 
L 190.777154 282.649187 
L 191.923668 282.967199 
L 193.070182 282.971668 
L 193.834525 283.065755 
L 195.936467 284.03861 
L 196.127553 284.285352 
L 196.318639 284.285352 
L 196.509724 284.541502 
L 196.70081 284.541502 
L 197.082981 285.299134 
L 197.274067 285.299134 
L 197.656238 286.076994 
L 197.847324 286.076994 
L 198.03841 286.372661 
L 198.229495 286.372661 
L 198.611667 286.532608 
L 200.904695 286.472393 
L 201.09578 286.279986 
L 201.286866 286.279986 
L 202.051209 285.766744 
L 202.242294 285.766744 
L 202.43338 285.627026 
L 202.624466 285.627026 
L 203.388808 285.090497 
L 203.579894 285.090497 
L 203.962065 284.74026 
L 204.153151 284.74026 
L 204.535322 284.564318 
L 204.917494 284.471643 
L 205.490751 284.362032 
L 205.872922 284.292173 
L 206.446179 284.188443 
L 209.312464 284.11482 
L 209.885721 284.07201 
L 210.650064 284.005679 
L 211.414406 283.896304 
L 212.56092 283.818682 
L 213.516349 283.747412 
L 216.764805 283.856787 
L 217.338062 284.052252 
L 217.720233 284.154101 
L 218.29349 284.300405 
L 220.96869 284.408605 
L 222.306289 284.835287 
L 223.070632 284.942546 
L 223.643889 285.02299 
L 224.408232 285.111667 
L 224.981489 285.330418 
L 226.319088 285.615265 
L 226.892345 285.670541 
L 227.274517 285.787678 
L 228.038859 285.852128 
L 228.803202 286.19225 
L 228.994288 286.19225 
L 229.185373 286.372426 
L 229.376459 286.372426 
L 229.75863 286.634928 
L 230.331887 286.744538 
L 231.09623 287.09407 
L 232.051658 287.542392 
L 232.242744 287.770082 
L 232.43383 287.770082 
L 232.624915 288.006239 
L 232.816001 288.006239 
L 233.198172 288.449622 
L 233.389258 288.449622 
L 233.580344 288.615449 
L 233.771429 288.615449 
L 234.153601 288.830672 
L 234.535772 288.931815 
L 236.064457 289.365319 
L 236.446628 289.432591 
L 236.8288 289.553962 
L 238.548571 290.399565 
L 239.312913 290.483302 
L 240.077256 290.803667 
L 240.841599 290.912572 
L 241.605941 290.975845 
L 241.988113 291.031591 
L 243.134627 291.387003 
L 243.325712 291.387003 
L 244.090055 291.838148 
L 244.472226 291.946818 
L 244.854398 292.039493 
L 245.809826 292.264125 
L 246.383083 292.487345 
L 246.765254 292.589429 
L 247.338511 292.655525 
L 248.102854 292.960365 
L 248.29394 292.960365 
L 248.485025 293.130427 
L 248.676111 293.130427 
L 249.058282 293.394339 
L 249.249368 293.394339 
L 249.440454 293.561813 
L 250.204796 293.66178 
L 251.35131 293.87371 
L 251.733482 293.976265 
L 252.306739 294.039773 
L 253.071081 294.115513 
L 253.835424 294.048241 
L 254.408681 293.825256 
L 254.599767 293.825256 
L 255.173024 293.466316 
L 255.555195 293.344003 
L 257.848223 293.237215 
L 258.612566 293.157477 
L 260.905594 292.774074 
L 261.669936 292.675754 
L 264.727307 292.323399 
L 265.49165 292.474408 
L 267.211421 292.373501 
L 268.740106 292.242955 
L 269.504449 292.251658 
L 270.268791 292.214494 
L 271.033134 292.258245 
L 272.370734 292.027968 
L 272.752905 292.085831 
L 273.326162 292.265301 
L 273.517248 292.265301 
L 273.899419 292.567554 
L 274.472676 292.669638 
L 274.854847 292.796655 
L 276.192447 292.697393 
L 276.765704 292.553206 
L 277.147875 292.513689 
L 277.721132 292.380557 
L 279.440903 292.488757 
L 280.01416 292.702098 
L 280.396332 292.788657 
L 280.969589 292.731735 
L 283.071531 291.964224 
L 283.262617 291.785224 
L 283.453702 291.785224 
L 284.218045 291.360659 
L 288.039758 291.290329 
L 288.804101 290.834715 
L 289.377358 290.731926 
L 292.052557 290.445197 
L 293.390157 290.416736 
L 296.829699 290.427556 
L 298.358384 289.855274 
L 298.740555 289.37214 
L 298.931641 289.37214 
L 299.122727 289.178557 
L 299.313812 289.178557 
L 299.695984 288.874893 
L 300.842498 288.982387 
L 302.94444 290.58421 
L 303.517697 290.762974 
L 303.899868 290.852827 
L 304.473125 290.985018 
L 304.855297 291.064992 
L 305.237468 291.143554 
L 306.957239 291.508375 
L 307.530496 291.638449 
L 309.823524 291.574706 
L 310.970038 291.263279 
L 313.645237 291.354073 
L 314.791751 291.828739 
L 314.982837 291.989157 
L 315.173923 291.989157 
L 315.938265 292.611539 
L 316.129351 292.611539 
L 316.511522 292.918026 
L 316.702608 292.918026 
L 317.084779 293.121959 
L 318.80455 293.062449 
L 321.861921 292.270946 
L 322.244092 292.36762 
L 322.817349 292.535094 
L 323.390606 292.614362 
L 325.683634 292.725384 
L 326.065806 292.843228 
L 327.976662 293.53641 
L 328.741005 293.604388 
L 329.505348 293.692123 
L 330.26969 293.61262 
L 330.651862 293.514065 
L 331.416204 293.251798 
L 333.709232 293.320011 
L 336.00226 293.985438 
L 336.193346 294.143739 
L 336.384431 294.143739 
L 336.766603 294.35214 
L 337.913117 294.278518 
L 338.677459 294.056473 
L 340.970487 294.095284 
L 341.352659 294.181844 
L 344.027858 294.48739 
L 345.365458 294.1722 
L 345.938715 293.855599 
L 346.703057 293.484192 
L 347.276314 293.403983 
L 347.658486 293.329184 
L 348.805 293.420213 
L 350.524771 294.220419 
L 350.906942 294.329795 
L 351.289113 294.416119 
L 352.053456 294.488095 
L 353.773227 294.406005 
L 355.301912 294.066823 
L 356.639512 293.509125 
L 357.212769 293.415274 
L 357.59494 293.315307 
L 361.607739 293.24286 
L 363.136425 292.683516 
L 363.518596 292.336807 
L 363.709682 292.336807 
L 364.282939 292.10159 
L 364.856196 291.967752 
L 365.047281 291.967752 
L 365.429453 291.777698 
L 366.767052 291.874371 
L 367.340309 291.991509 
L 369.06008 292.094299 
L 370.588766 292.343628 
L 371.73528 292.315637 
L 373.455051 292.714799 
L 374.410479 292.706802 
L 377.085678 291.759351 
L 377.276764 291.583409 
L 377.46785 291.583409 
L 378.232192 291.109213 
L 378.423278 291.109213 
L 378.996535 290.838949 
L 379.760878 290.53505 
L 380.143049 290.452489 
L 380.52522 290.37181 
L 381.098477 290.369457 
L 382.244991 290.767679 
L 382.627163 290.872115 
L 383.200419 291.028063 
L 383.391505 291.028063 
L 383.773676 291.217412 
L 385.111276 291.232231 
L 385.302362 291.089925 
L 385.493447 291.089925 
L 385.875619 290.887639 
L 386.448876 290.810723 
L 386.831047 290.634546 
L 389.888418 290.733572 
L 391.034932 290.918687 
L 392.181446 290.982902 
L 392.563617 290.905515 
L 393.136874 290.875408 
L 396.958587 290.8453 
L 398.487273 290.157292 
L 398.487273 290.157292 
" clip-path="url(#p286a09ba45)" style="fill: none; stroke: #ff0000; stroke-width: 1.5; stroke-linecap: square"/>
   </g>
   <g id="line2d_16">
    <path d="M 73.832727 58.342892 
L 74.023813 58.114732 
L 74.214899 58.114732 
L 74.405984 57.97125 
L 74.59707 57.97125 
L 75.170327 57.674877 
L 75.93467 57.416139 
L 76.699012 57.329109 
L 77.272269 57.279714 
L 78.227698 57.197388 
L 79.183126 57.098597 
L 80.520726 56.745773 
L 81.093983 56.649334 
L 82.240497 56.479978 
L 83.578096 56.543487 
L 84.342439 56.766942 
L 84.533525 56.766942 
L 84.915696 57.016271 
L 85.106782 57.016271 
L 85.871124 57.446717 
L 86.06221 57.446717 
L 86.826553 57.88422 
L 87.208724 57.994771 
L 87.590895 58.11238 
L 88.355238 58.307609 
L 88.737409 58.404048 
L 89.310666 58.686307 
L 89.692837 58.78745 
L 90.075009 58.916819 
L 90.839351 59.257883 
L 91.603694 59.356674 
L 92.941294 59.464874 
L 93.705636 59.420182 
L 94.278893 59.267292 
L 94.661065 59.17791 
L 95.234322 59.060301 
L 95.998664 58.952102 
L 96.763007 58.761577 
L 97.145178 58.68866 
L 98.100607 58.578108 
L 99.056035 58.317018 
L 101.157977 56.990398 
L 101.349063 56.811633 
L 101.540149 56.811633 
L 101.731234 56.611699 
L 101.92232 56.611699 
L 102.304491 56.397653 
L 104.597519 56.479978 
L 105.170776 56.602291 
L 105.552948 56.658743 
L 106.699462 57.098597 
L 106.890547 57.098597 
L 107.272719 57.291475 
L 107.845976 57.369096 
L 108.228147 57.599608 
L 108.610318 57.653708 
L 109.183575 57.773668 
L 109.565747 57.874811 
L 109.756832 58.079449 
L 109.947918 58.079449 
L 110.712261 58.556938 
L 111.094432 58.658081 
L 111.667689 58.881537 
L 112.04986 58.940341 
L 112.623117 59.050893 
L 113.578546 58.942693 
L 114.151803 58.780394 
L 114.533974 58.681603 
L 114.72506 58.542825 
L 114.916145 58.542825 
L 115.680488 57.985363 
L 115.871574 57.985363 
L 116.253745 57.649003 
L 116.444831 57.649003 
L 116.827002 57.244431 
L 117.018088 57.244431 
L 117.209173 57.018624 
L 117.400259 57.018624 
L 117.78243 56.661095 
L 117.973516 56.661095 
L 118.164602 56.418822 
L 118.355687 56.418822 
L 118.737859 56.10128 
L 118.928944 56.10128 
L 119.12003 55.924868 
L 119.311116 55.924868 
L 119.693287 55.661425 
L 119.884373 55.661425 
L 120.075458 55.522648 
L 120.266544 55.522648 
L 120.648715 55.158062 
L 120.839801 55.158062 
L 121.030887 54.998115 
L 121.221972 54.998115 
L 121.604144 54.66646 
L 122.368486 54.584135 
L 122.559572 55.146302 
L 122.750658 55.146302 
L 123.132829 59.224953 
L 123.323915 59.224953 
L 123.706086 65.676937 
L 123.897172 65.676937 
L 124.088257 71.326833 
L 124.279343 71.326833 
L 124.661514 81.321175 
L 124.8526 81.321175 
L 125.043686 88.70932 
L 125.234771 88.70932 
L 125.616943 100.413685 
L 125.808028 100.413685 
L 126.1902 114.357309 
L 126.381285 114.357309 
L 126.572371 120.275823 
L 126.763457 120.275823 
L 127.145628 133.795587 
L 127.336714 133.795587 
L 127.527799 139.366216 
L 127.718885 139.366216 
L 128.101056 151.848206 
L 128.292142 151.848206 
L 128.674313 163.509761 
L 128.865399 163.509761 
L 129.056485 168.203033 
L 129.24757 168.203033 
L 129.629742 178.493747 
L 129.820827 178.493747 
L 130.011913 182.638259 
L 130.202999 182.638259 
L 130.58517 191.095463 
L 130.776256 191.095463 
L 131.158427 199.429648 
L 131.349513 199.429648 
L 131.540598 202.761487 
L 131.731684 202.761487 
L 132.113855 209.957696 
L 132.304941 209.957696 
L 132.496027 212.888021 
L 132.687112 212.888021 
L 133.069284 219.279319 
L 133.260369 219.279319 
L 133.451455 221.868345 
L 133.642541 221.868345 
L 134.024712 227.470963 
L 134.215798 227.470963 
L 134.597969 231.835402 
L 134.789055 231.835402 
L 134.98014 234.58908 
L 135.171226 234.58908 
L 135.553397 238.463798 
L 135.744483 238.463798 
L 135.935569 240.874766 
L 136.126654 240.874766 
L 136.508826 244.156504 
L 136.699911 244.156504 
L 136.890997 246.12009 
L 137.082083 246.12009 
L 137.464254 248.735225 
L 137.65534 248.735225 
L 138.037511 251.415045 
L 138.228597 251.415045 
L 138.610768 253.971611 
L 138.801853 253.971611 
L 138.992939 254.999036 
L 139.184025 254.999036 
L 139.566196 257.223712 
L 139.757282 257.223712 
L 139.948367 258.050263 
L 140.139453 258.050263 
L 140.521624 259.839083 
L 140.71271 259.839083 
L 140.903796 260.697387 
L 141.094881 260.697387 
L 141.477053 262.630395 
L 141.668138 262.630395 
L 142.05031 264.083562 
L 142.241395 264.083562 
L 142.432481 264.980677 
L 142.623567 264.980677 
L 143.005738 266.167108 
L 143.196824 266.167108 
L 143.387909 266.943557 
L 143.578995 266.943557 
L 143.961166 268.057542 
L 144.152252 268.057542 
L 144.534423 269.319007 
L 144.725509 269.319007 
L 144.916595 269.851066 
L 145.10768 269.851066 
L 145.489852 270.925299 
L 145.680937 270.925299 
L 145.872023 271.293883 
L 146.063109 271.293883 
L 146.44528 271.988712 
L 146.636366 271.988712 
L 147.018537 272.592748 
L 147.209623 272.592748 
L 147.400708 272.909584 
L 147.591794 272.909584 
L 148.547222 273.842217 
L 148.738308 273.842217 
L 148.929394 274.029684 
L 149.120479 274.029684 
L 149.502651 274.546925 
L 149.693736 274.546925 
L 149.884822 274.731099 
L 150.075908 274.731099 
L 150.458079 275.044408 
L 151.031336 275.137788 
L 151.413507 275.374181 
L 151.795679 275.435572 
L 152.368936 275.709599 
L 152.560021 275.709599 
L 153.324364 276.348447 
L 153.51545 276.348447 
L 153.897621 276.737259 
L 154.088707 276.737259 
L 154.661964 277.073619 
L 155.235221 277.215689 
L 155.426306 277.439851 
L 155.617392 277.439851 
L 155.999563 277.919927 
L 156.190649 277.919927 
L 156.381735 278.128329 
L 156.57282 278.128329 
L 156.954992 278.507262 
L 157.337163 278.604877 
L 157.719334 278.717781 
L 158.483677 278.771175 
L 160.203448 278.808104 
L 160.394534 278.957937 
L 160.585619 278.957937 
L 160.967791 279.27642 
L 161.158876 279.27642 
L 161.349962 279.45048 
L 161.732133 279.550212 
L 162.30539 279.696516 
L 163.64299 279.792014 
L 164.216247 280.00465 
L 165.362761 280.502838 
L 165.936018 280.591044 
L 166.700361 280.795682 
L 167.464703 280.747698 
L 168.611217 281.067357 
L 168.993389 281.200019 
L 169.757731 281.573307 
L 170.139903 281.658456 
L 170.522074 281.731137 
L 171.859674 281.732549 
L 172.432931 281.697031 
L 173.961616 282.117598 
L 174.152702 282.321295 
L 174.343787 282.321295 
L 175.299216 283.145728 
L 175.490301 283.145728 
L 175.681387 283.325434 
L 175.872473 283.325434 
L 176.254644 283.665557 
L 176.44573 283.665557 
L 177.210072 284.080008 
L 177.401158 284.080008 
L 178.165501 284.44083 
L 178.356586 284.44083 
L 178.738758 284.695098 
L 178.929843 284.695098 
L 179.312015 284.829642 
L 181.031786 285.710292 
L 181.222871 285.710292 
L 182.1783 286.333615 
L 182.369385 286.333615 
L 182.560471 286.508852 
L 182.751557 286.508852 
L 183.133728 286.836978 
L 183.706985 286.928242 
L 184.471328 286.983753 
L 188.101955 286.050415 
L 190.586069 286.111101 
L 192.30584 286.788759 
L 192.496925 286.934828 
L 192.688011 286.934828 
L 192.879097 287.07243 
L 193.261268 287.16534 
L 194.025611 287.183687 
L 195.172125 287.245079 
L 196.509724 287.690579 
L 197.082981 287.747971 
L 197.847324 288.163128 
L 198.229495 288.271563 
L 198.993838 288.543473 
L 199.184924 288.543473 
L 199.567095 288.679428 
L 200.331438 289.136924 
L 200.713609 289.232657 
L 201.477952 289.682861 
L 202.051209 289.788708 
L 202.624466 289.87174 
L 203.197723 289.803762 
L 203.77098 289.692975 
L 204.153151 289.636053 
L 205.299665 289.415655 
L 206.637265 289.525736 
L 207.019436 289.626644 
L 207.401607 289.686154 
L 208.16595 289.613237 
L 208.739207 289.486926 
L 209.50355 289.543613 
L 210.267892 289.943481 
L 211.605492 289.915019 
L 211.796578 289.750368 
L 211.987663 289.750368 
L 212.178749 289.604769 
L 212.369835 289.604769 
L 212.943092 289.239478 
L 213.707434 288.791391 
L 214.280691 288.692365 
L 214.662863 288.467968 
L 215.045034 288.399521 
L 215.618291 288.272033 
L 216.382634 288.179593 
L 216.955891 288.062456 
L 218.675662 287.858053 
L 219.057833 287.916621 
L 219.440004 287.97519 
L 220.013261 287.928147 
L 220.586518 287.620484 
L 220.777604 287.620484 
L 221.350861 287.196389 
L 221.541947 287.049849 
L 221.924118 286.96329 
L 222.306289 286.844741 
L 222.688461 286.700318 
L 225.745831 286.801931 
L 226.510174 286.951529 
L 229.185373 286.842624 
L 229.75863 286.775587 
L 231.09623 286.895547 
L 231.478401 287.085837 
L 231.860573 287.167928 
L 232.051658 287.309763 
L 232.242744 287.309763 
L 232.624915 287.424784 
L 233.007087 287.510638 
L 233.771429 287.433957 
L 234.344686 287.281302 
L 234.726858 287.313527 
L 234.917943 287.504287 
L 235.109029 287.504287 
L 235.4912 287.907448 
L 235.682286 287.907448 
L 235.873372 288.168303 
L 236.064457 288.168303 
L 236.446628 288.512189 
L 236.637714 288.512189 
L 236.8288 288.666256 
L 237.210971 288.761518 
L 237.784228 289.06236 
L 238.930742 289.199021 
L 240.077256 289.291226 
L 240.841599 289.599594 
L 241.22377 289.684272 
L 241.797027 289.842808 
L 243.134627 289.788238 
L 243.898969 289.498686 
L 244.472226 289.453055 
L 245.236569 289.2256 
L 247.529597 289.296871 
L 248.102854 289.435648 
L 248.676111 289.533498 
L 250.969139 289.454701 
L 252.115653 289.130338 
L 252.68891 288.846902 
L 252.879996 288.846902 
L 253.262167 288.500899 
L 253.835424 288.408459 
L 254.217595 288.284029 
L 255.937366 288.347538 
L 256.510623 288.531712 
L 257.274966 288.823616 
L 257.466052 288.823616 
L 257.848223 288.950397 
L 258.42148 288.960982 
L 259.185823 288.693776 
L 259.376908 288.693776 
L 259.950165 288.419984 
L 260.905594 288.194177 
L 261.478851 288.20288 
L 262.625365 288.688601 
L 262.81645 288.688601 
L 263.198622 289.057185 
L 263.389707 289.057185 
L 263.580793 289.197374 
L 263.962964 289.291696 
L 264.536221 289.390722 
L 269.695534 289.328625 
L 270.268791 289.098583 
L 270.459877 288.866895 
L 270.650963 288.866895 
L 271.606391 288.167362 
L 272.179648 288.079156 
L 272.943991 287.859699 
L 273.326162 287.805835 
L 273.899419 287.645182 
L 274.28159 287.556505 
L 275.045933 287.551801 
L 275.810276 287.707749 
L 276.192447 287.818536 
L 276.765704 287.930499 
L 276.95679 288.084566 
L 277.147875 288.084566 
L 277.721132 288.484904 
L 277.912218 288.627445 
L 278.103304 288.627445 
L 278.485475 288.836317 
L 279.631989 288.921936 
L 280.587417 289.023549 
L 281.925017 289.198786 
L 282.116103 289.198786 
L 282.498274 289.322274 
L 283.262617 289.650871 
L 283.644788 289.732021 
L 284.409131 289.95971 
L 284.982388 290.069557 
L 285.364559 290.287837 
L 285.555644 290.287837 
L 285.937816 290.407092 
L 286.893244 290.758505 
L 292.434728 290.841066 
L 293.581242 291.262809 
L 293.772328 291.422991 
L 293.963414 291.422991 
L 294.345585 291.662206 
L 294.536671 291.662206 
L 294.727756 291.799573 
L 295.109928 291.897187 
L 295.683185 292.100179 
L 297.020784 292.046785 
L 297.594041 291.847557 
L 298.931641 291.610929 
L 299.504898 291.431224 
L 300.078155 291.276216 
L 300.842498 291.228703 
L 301.60684 290.992781 
L 302.371183 290.907162 
L 302.94444 290.794258 
L 305.810725 290.744627 
L 307.530496 290.673122 
L 312.307638 290.768149 
L 313.07198 290.829776 
L 317.849122 290.851416 
L 318.422379 291.083574 
L 318.613465 291.083574 
L 319.186722 291.482971 
L 319.951064 291.94329 
L 320.14215 291.94329 
L 320.524321 292.189561 
L 320.715407 292.189561 
L 321.097578 292.316108 
L 322.435178 292.691748 
L 322.626264 292.691748 
L 322.817349 292.929081 
L 323.008435 292.929081 
L 323.390606 293.386577 
L 323.581692 293.386577 
L 323.963863 293.838663 
L 324.53712 293.931809 
L 324.919292 294.142327 
L 327.21232 294.173141 
L 327.785577 294.382013 
L 327.976662 294.382013 
L 328.932091 294.881377 
L 329.696433 294.963703 
L 330.26969 295.070491 
L 331.034033 295.062494 
L 331.798376 294.567834 
L 331.989461 294.567834 
L 332.371633 294.185842 
L 332.562718 294.185842 
L 332.753804 294.000962 
L 332.94489 294.000962 
L 333.327061 293.678716 
L 333.518147 293.678716 
L 333.709232 293.533823 
L 333.900318 293.533823 
L 334.282489 293.34659 
L 336.00226 293.383284 
L 336.766603 293.656841 
L 337.148774 293.744812 
L 337.722031 293.860773 
L 337.913117 293.860773 
L 338.295288 294.058355 
L 340.39723 294.147502 
L 342.117001 294.345319 
L 342.499173 294.412591 
L 344.792201 295.168811 
L 345.747629 295.343107 
L 346.320886 295.278657 
L 347.658486 294.521026 
L 347.849571 294.521026 
L 348.040657 294.245823 
L 348.231743 294.245823 
L 349.187171 293.261442 
L 349.378257 293.261442 
L 349.569342 293.075856 
L 349.760428 293.075856 
L 350.142599 292.64447 
L 350.333685 292.64447 
L 350.524771 292.459825 
L 350.715856 292.459825 
L 351.098028 292.002329 
L 351.289113 292.002329 
L 351.671285 291.664794 
L 353.391056 291.717012 
L 354.155398 291.890131 
L 355.875169 291.95411 
L 356.448426 292.110058 
L 356.639512 292.317754 
L 356.830598 292.317754 
L 357.786026 292.837112 
L 358.359283 293.008114 
L 358.93254 293.124311 
L 360.27014 293.205696 
L 360.652311 293.504421 
L 360.843397 293.504421 
L 361.034482 293.724348 
L 361.225568 293.724348 
L 361.607739 294.083994 
L 361.798825 294.083994 
L 361.989911 294.26464 
L 363.32751 294.191488 
L 366.767052 291.978337 
L 366.958138 291.795574 
L 367.149224 291.795574 
L 367.531395 291.501789 
L 367.722481 291.501789 
L 367.913566 291.327729 
L 368.104652 291.327729 
L 368.486823 291.126854 
L 369.06008 291.017008 
L 369.633337 290.866469 
L 370.015509 290.464485 
L 370.206594 290.464485 
L 370.39768 290.274195 
L 370.588766 290.274195 
L 370.970937 289.827989 
L 371.162023 289.827989 
L 371.353108 289.666631 
L 371.544194 289.666631 
L 371.926365 289.471872 
L 373.646136 289.560313 
L 374.983736 289.80729 
L 375.556993 289.998286 
L 376.512421 290.077789 
L 377.276764 290.276782 
L 378.614364 290.186694 
L 381.098477 289.943245 
L 383.391505 290.238677 
L 383.773676 290.544694 
L 383.964762 290.544694 
L 384.155848 290.703465 
L 384.346933 290.703465 
L 384.729105 290.994662 
L 385.111276 291.096276 
L 385.302362 291.263985 
L 385.493447 291.263985 
L 385.875619 291.391708 
L 386.639961 291.650681 
L 386.831047 291.650681 
L 387.786475 292.259656 
L 387.977561 292.259656 
L 388.168647 292.461707 
L 388.359732 292.461707 
L 388.741904 292.715505 
L 390.079503 292.64447 
L 390.65276 292.464529 
L 391.417103 292.361269 
L 392.754703 291.890366 
L 393.136874 291.701487 
L 396.38533 291.628806 
L 396.576416 291.474504 
L 396.767502 291.474504 
L 397.149673 290.985724 
L 397.340759 290.985724 
L 397.531844 290.783673 
L 397.72293 290.783673 
L 398.105101 290.372515 
L 398.296187 290.372515 
L 398.487273 290.232326 
L 398.487273 290.232326 
" clip-path="url(#p286a09ba45)" style="fill: none; stroke: #0000ff; stroke-width: 1.5; stroke-linecap: square"/>
   </g>
   <g id="line2d_17">
    <path d="M 73.832727 56.616404 
L 74.214899 56.545839 
L 80.138554 54.66646 
L 80.520726 54.532387 
L 81.858325 54.26424 
L 82.431582 54.153689 
L 83.195925 53.904359 
L 83.960268 53.793808 
L 84.72461 53.638565 
L 86.826553 53.723243 
L 87.590895 53.82909 
L 88.546324 53.986685 
L 88.928495 54.123111 
L 89.692837 54.308931 
L 90.266094 54.400666 
L 91.603694 54.911085 
L 91.985865 54.995763 
L 92.559122 55.160415 
L 92.750208 55.160415 
L 93.132379 55.412096 
L 93.514551 55.515591 
L 93.896722 55.635552 
L 94.661065 55.851951 
L 95.234322 55.950741 
L 96.18975 56.223592 
L 97.336264 56.423526 
L 99.056035 56.512909 
L 100.393635 56.59053 
L 101.540149 56.809281 
L 103.25992 56.738716 
L 104.024262 56.524669 
L 104.406434 56.47057 
L 104.979691 56.287101 
L 105.170776 56.287101 
L 105.935119 55.856655 
L 106.126205 55.856655 
L 106.508376 55.562635 
L 106.699462 55.562635 
L 106.890547 55.407392 
L 107.272719 55.320362 
L 108.037061 55.172175 
L 110.521175 54.901677 
L 111.285518 55.056919 
L 111.476603 55.233332 
L 112.04986 55.336827 
L 113.38746 55.835485 
L 116.253745 55.736695 
L 116.827002 55.619086 
L 117.209173 55.560282 
L 117.78243 55.475604 
L 118.546773 55.390927 
L 121.604144 54.845225 
L 121.986315 54.748786 
L 122.177401 54.732321 
L 122.368486 55.15571 
L 122.559572 55.15571 
L 122.750658 56.200071 
L 122.941743 56.200071 
L 123.132829 57.95008 
L 123.323915 61.393647 
L 123.515 61.393647 
L 123.897172 68.80061 
L 124.088257 68.80061 
L 124.279343 74.991504 
L 124.470429 74.991504 
L 124.8526 85.627986 
L 125.043686 85.627986 
L 125.234771 93.321913 
L 125.425857 93.321913 
L 125.808028 107.338454 
L 125.999114 107.338454 
L 126.1902 113.367049 
L 126.381285 113.367049 
L 126.763457 127.058992 
L 126.954542 127.058992 
L 127.336714 138.38701 
L 127.527799 138.38701 
L 127.718885 143.796986 
L 127.909971 143.796986 
L 128.292142 155.917684 
L 128.483228 155.917684 
L 128.674313 160.781957 
L 128.865399 160.781957 
L 129.24757 171.601909 
L 129.438656 171.601909 
L 129.820827 181.711507 
L 130.011913 181.711507 
L 130.202999 185.804271 
L 130.394084 185.804271 
L 130.776256 194.878917 
L 130.967341 194.878917 
L 131.158427 198.60004 
L 131.349513 198.60004 
L 131.731684 206.886711 
L 131.92277 206.886711 
L 132.113855 210.262066 
L 132.304941 210.262066 
L 132.687112 217.69255 
L 132.878198 217.69255 
L 133.260369 223.612945 
L 133.451455 223.612945 
L 133.642541 227.334067 
L 133.833626 227.334067 
L 134.215798 232.624082 
L 134.406883 232.624082 
L 134.789055 238.276331 
L 134.98014 238.276331 
L 135.171226 240.534408 
L 135.362312 240.534408 
L 135.744483 245.436316 
L 135.935569 245.436316 
L 136.126654 247.393316 
L 136.31774 247.393316 
L 136.699911 251.674253 
L 136.890997 251.674253 
L 137.273168 255.567084 
L 137.464254 255.567084 
L 137.65534 257.117159 
L 137.846425 257.117159 
L 138.228597 260.410188 
L 138.419682 260.410188 
L 138.610768 261.720343 
L 138.801853 261.720343 
L 139.184025 264.486487 
L 139.37511 264.486487 
L 139.757282 266.681056 
L 139.948367 266.681056 
L 140.139453 268.068832 
L 140.330539 268.068832 
L 140.71271 270.061114 
L 140.903796 270.061114 
L 141.094881 271.340691 
L 141.285967 271.340691 
L 141.668138 273.1448 
L 141.859224 273.1448 
L 142.241395 275.042996 
L 142.432481 275.042996 
L 142.623567 275.826267 
L 142.814652 275.826267 
L 143.196824 277.571572 
L 143.387909 277.571572 
L 143.578995 278.284277 
L 143.770081 278.284277 
L 144.152252 279.848466 
L 144.343338 279.848466 
L 144.725509 281.033956 
L 144.916595 281.033956 
L 145.10768 281.753718 
L 145.298766 281.753718 
L 145.680937 282.753388 
L 145.872023 282.753388 
L 146.063109 283.411993 
L 146.254194 283.411993 
L 146.636366 284.444593 
L 146.827451 284.444593 
L 147.018537 284.849165 
L 147.209623 284.849165 
L 147.591794 285.543053 
L 147.78288 285.543053 
L 148.165051 286.366311 
L 148.356137 286.366311 
L 148.547222 286.841448 
L 148.738308 286.841448 
L 149.120479 287.528279 
L 149.311565 287.528279 
L 149.502651 287.859934 
L 149.693736 287.859934 
L 150.075908 288.582048 
L 150.266993 288.582048 
L 150.649165 289.20302 
L 150.84025 289.20302 
L 151.031336 289.435884 
L 151.222422 289.435884 
L 151.604593 289.976881 
L 151.795679 289.976881 
L 151.986764 290.162702 
L 152.17785 290.162702 
L 152.560021 290.661361 
L 152.751107 290.661361 
L 152.942193 290.840125 
L 153.133278 290.840125 
L 153.51545 291.282332 
L 153.706535 291.282332 
L 154.088707 291.585761 
L 154.279792 291.585761 
L 154.470878 291.750412 
L 154.853049 291.83509 
L 155.808478 291.955051 
L 158.101506 291.804512 
L 158.674763 291.581057 
L 159.439105 291.251754 
L 159.821277 291.185893 
L 160.585619 290.882464 
L 160.776705 290.882464 
L 160.967791 290.731926 
L 161.349962 290.651952 
L 161.923219 290.449666 
L 162.687562 290.35558 
L 163.834076 290.322649 
L 165.553847 290.47554 
L 166.318189 290.546105 
L 168.420132 291.03065 
L 168.611217 291.03065 
L 168.993389 291.305854 
L 169.566646 291.414053 
L 169.948817 291.59517 
L 170.71316 291.672791 
L 171.477502 291.757469 
L 172.241845 291.860964 
L 173.006188 291.957403 
L 173.77053 292.133815 
L 174.343787 292.230254 
L 174.725959 292.260832 
L 175.10813 292.34551 
L 175.681387 292.369031 
L 176.44573 292.305523 
L 177.018987 292.227902 
L 177.401158 292.093828 
L 177.974415 292.042081 
L 178.356586 291.816273 
L 178.738758 291.80216 
L 179.120929 291.672791 
L 179.5031 291.574 
L 180.649614 291.251754 
L 181.031786 291.134146 
L 182.369385 290.807195 
L 183.133728 290.710756 
L 183.706985 290.637839 
L 184.280242 290.689587 
L 186.764356 290.713108 
L 187.337612 290.875408 
L 188.484126 290.94362 
L 188.866298 291.103568 
L 189.248469 291.195302 
L 190.394983 291.36701 
L 194.981039 291.418757 
L 195.554296 291.5199 
L 196.318639 291.512844 
L 197.465153 291.449336 
L 198.802752 291.17178 
L 200.522523 291.239993 
L 201.09578 291.324671 
L 203.006637 291.216471 
L 204.535322 291.148259 
L 205.490751 291.023594 
L 206.255093 291.058876 
L 207.019436 291.362305 
L 207.210522 291.362305 
L 207.592693 291.663382 
L 207.974864 291.76923 
L 208.357036 291.877429 
L 209.121378 292.044433 
L 211.796578 291.962107 
L 212.943092 291.88919 
L 216.000462 291.54107 
L 217.146976 291.635156 
L 217.911319 291.766878 
L 221.541947 291.684552 
L 222.115204 291.656326 
L 223.261718 291.717482 
L 224.02606 291.978572 
L 224.217146 291.978572 
L 224.408232 292.133815 
L 224.599317 292.133815 
L 224.981489 292.329045 
L 225.172574 292.329045 
L 225.554746 292.456061 
L 225.936917 292.597191 
L 226.70126 292.698334 
L 229.567545 293.119372 
L 231.860573 294.210775 
L 232.051658 294.210775 
L 232.242744 294.391892 
L 232.43383 294.391892 
L 233.007087 294.631813 
L 234.153601 295.024624 
L 234.917943 295.146936 
L 236.255543 295.203388 
L 237.019885 295.278657 
L 237.784228 295.332757 
L 239.503999 295.295123 
L 240.268342 294.961115 
L 240.459427 294.961115 
L 240.650513 294.822338 
L 241.032684 294.749421 
L 241.414856 294.612995 
L 242.179198 294.290749 
L 242.370284 294.290749 
L 242.752455 294.076702 
L 243.325712 293.977911 
L 244.090055 293.740343 
L 244.281141 293.740343 
L 244.663312 293.528648 
L 245.045483 293.44397 
L 245.61874 293.279319 
L 246.000912 293.218162 
L 246.574169 293.034694 
L 246.95634 292.971185 
L 247.338511 292.853577 
L 247.720683 292.750082 
L 249.440454 292.190267 
L 250.013711 292.044433 
L 251.160225 291.94329 
L 251.924567 291.745708 
L 252.497824 291.689256 
L 253.453253 291.597522 
L 254.599767 291.322319 
L 256.128452 291.214119 
L 257.08388 291.150611 
L 257.657137 291.204711 
L 258.42148 291.45404 
L 261.287765 291.352897 
L 263.771879 290.880112 
L 264.536221 290.515527 
L 265.109478 290.416736 
L 265.873821 290.125068 
L 266.255992 290.045094 
L 267.020335 289.751074 
L 267.593592 289.642874 
L 268.357935 289.273584 
L 268.740106 289.198315 
L 269.313363 289.059538 
L 270.650963 289.132455 
L 271.415305 289.282993 
L 277.530047 289.372375 
L 278.867646 289.79106 
L 279.631989 289.89926 
L 280.396332 290.009812 
L 281.160674 290.10625 
L 282.307188 290.376749 
L 283.071531 290.468483 
L 283.262617 290.61667 
L 283.453702 290.61667 
L 283.835874 290.868351 
L 284.026959 290.868351 
L 284.409131 291.19295 
L 284.600216 291.19295 
L 285.173473 291.439927 
L 285.74673 291.611635 
L 286.128901 291.672791 
L 286.702158 291.806864 
L 287.657587 291.978572 
L 288.613015 292.140872 
L 289.950615 292.162041 
L 290.714957 292.133815 
L 291.670386 292.298467 
L 293.007985 292.677165 
L 294.154499 292.902972 
L 294.536671 292.980594 
L 297.21187 293.860303 
L 297.594041 293.93322 
L 304.664211 295.422139 
L 305.046382 295.351575 
L 306.766153 294.895255 
L 307.148325 294.636517 
L 307.33941 294.636517 
L 307.912667 294.401301 
L 308.294839 294.31427 
L 309.059181 294.250762 
L 310.778952 294.347201 
L 311.543295 294.420118 
L 313.263066 294.326031 
L 313.836323 294.189606 
L 317.466951 294.02025 
L 318.231293 293.970855 
L 318.995636 293.761512 
L 319.186722 293.761512 
L 319.568893 293.648608 
L 321.861921 293.467492 
L 324.728206 293.413392 
L 325.301463 293.281671 
L 326.639063 293.178176 
L 327.403405 292.870042 
L 327.976662 292.773604 
L 328.741005 292.491344 
L 329.123176 292.359623 
L 329.887519 292.053842 
L 330.078605 292.053842 
L 331.798376 291.056524 
L 331.989461 291.056524 
L 332.753804 290.522583 
L 333.327061 290.289719 
L 333.518147 290.289719 
L 333.900318 289.974529 
L 334.091403 289.974529 
L 334.282489 289.800469 
L 334.66466 289.741665 
L 336.575517 289.207724 
L 337.33986 289.111285 
L 339.059631 289.177146 
L 339.632888 289.240654 
L 341.925916 289.238302 
L 342.881344 289.217133 
L 343.645687 289.318276 
L 344.410029 289.391193 
L 344.792201 289.652283 
L 345.174372 289.713439 
L 347.4674 290.654304 
L 347.658486 290.85659 
L 347.849571 290.85659 
L 348.231743 291.211767 
L 348.422828 291.211767 
L 348.805 291.510492 
L 348.996085 291.510492 
L 349.760428 292.006798 
L 349.951514 292.006798 
L 350.142599 292.185563 
L 350.333685 292.185563 
L 350.715856 292.587783 
L 350.906942 292.587783 
L 351.671285 293.124076 
L 351.86237 293.124076 
L 352.435627 293.540409 
L 352.626713 293.709765 
L 352.817799 293.709765 
L 353.19997 293.949685 
L 353.391056 293.949685 
L 353.773227 294.293101 
L 353.964313 294.293101 
L 354.155398 294.502444 
L 354.346484 294.502444 
L 354.728655 294.758829 
L 354.919741 294.758829 
L 355.301912 294.876438 
L 357.212769 295.450365 
L 358.93254 295.398618 
L 359.505797 295.278657 
L 360.079054 295.233966 
L 360.461225 295.182219 
L 360.843397 295.055202 
L 361.607739 294.819986 
L 361.798825 294.819986 
L 362.180996 294.594178 
L 362.372082 294.594178 
L 363.136425 294.081406 
L 363.32751 294.081406 
L 365.047281 292.95472 
L 365.238367 292.95472 
L 365.620538 292.608952 
L 365.811624 292.608952 
L 366.575967 292.124406 
L 367.149224 292.027968 
L 368.104652 291.729243 
L 368.295738 291.729243 
L 368.677909 291.616339 
L 371.926365 291.096511 
L 372.308537 291.011833 
L 372.690708 290.896577 
L 373.646136 290.811899 
L 374.79265 290.797786 
L 375.939164 291.021242 
L 376.703507 291.10592 
L 377.085678 291.195302 
L 378.614364 291.148259 
L 379.951963 290.731926 
L 380.52522 290.675474 
L 381.289563 290.487301 
L 382.244991 290.395566 
L 383.009334 290.310888 
L 383.964762 290.308536 
L 385.111276 290.282663 
L 387.786475 289.81223 
L 388.932989 289.882795 
L 392.754703 290.753095 
L 393.519045 290.821308 
L 394.856645 291.070637 
L 398.487273 291.023594 
L 398.487273 291.023594 
" clip-path="url(#p286a09ba45)" style="fill: none; stroke: #008000; stroke-width: 1.5; stroke-linecap: square"/>
   </g>
   <g id="patch_3">
    <path d="M 57.6 307.584 
L 57.6 41.472 
" style="fill: none; stroke: #000000; stroke-width: 0.8; stroke-linejoin: miter; stroke-linecap: square"/>
   </g>
   <g id="patch_4">
    <path d="M 414.72 307.584 
L 414.72 41.472 
" style="fill: none; stroke: #000000; stroke-width: 0.8; stroke-linejoin: miter; stroke-linecap: square"/>
   </g>
   <g id="patch_5">
    <path d="M 57.6 307.584 
L 414.72 307.584 
" style="fill: none; stroke: #000000; stroke-width: 0.8; stroke-linejoin: miter; stroke-linecap: square"/>
   </g>
   <g id="patch_6">
    <path d="M 57.6 41.472 
L 414.72 41.472 
" style="fill: none; stroke: #000000; stroke-width: 0.8; stroke-linejoin: miter; stroke-linecap: square"/>
   </g>
   <g id="legend_1">
    <g id="patch_7">
     <path d="M -101.4675 245.079562 
L 393.72 245.079562 
Q 399.72 245.079562 399.72 239.079562 
L 399.72 109.976438 
Q 399.72 103.976438 393.72 103.976438 
L -101.4675 103.976438 
Q -107.4675 103.976438 -107.4675 109.976438 
L -107.4675 239.079562 
Q -107.4675 245.079562 -101.4675 245.079562 
z
" style="fill: #ffffff; opacity: 0.8; stroke: #cccccc; stroke-linejoin: miter"/>
    </g>
    <g id="line2d_18">
     <path style="fill: none; stroke: #ff0000; stroke-width: 1.5; stroke-linecap: square"/>
    </g>
    <g id="text_17">
     <!-- Cheeseman compensation -->
     <g transform="translate(-11.4675 138.77175)scale(0.3 -0.3)">
      <defs>
       <path id="DejaVuSans-43" d="M 4122 4306 
L 4122 3641 
Q 3803 3938 3442 4084 
Q 3081 4231 2675 4231 
Q 1875 4231 1450 3742 
Q 1025 3253 1025 2328 
Q 1025 1406 1450 917 
Q 1875 428 2675 428 
Q 3081 428 3442 575 
Q 3803 722 4122 1019 
L 4122 359 
Q 3791 134 3420 21 
Q 3050 -91 2638 -91 
Q 1578 -91 968 557 
Q 359 1206 359 2328 
Q 359 3453 968 4101 
Q 1578 4750 2638 4750 
Q 3056 4750 3426 4639 
Q 3797 4528 4122 4306 
z
" transform="scale(0.015625)"/>
       <path id="DejaVuSans-68" d="M 3513 2113 
L 3513 0 
L 2938 0 
L 2938 2094 
Q 2938 2591 2744 2837 
Q 2550 3084 2163 3084 
Q 1697 3084 1428 2787 
Q 1159 2491 1159 1978 
L 1159 0 
L 581 0 
L 581 4863 
L 1159 4863 
L 1159 2956 
Q 1366 3272 1645 3428 
Q 1925 3584 2291 3584 
Q 2894 3584 3203 3211 
Q 3513 2838 3513 2113 
z
" transform="scale(0.015625)"/>
       <path id="DejaVuSans-65" d="M 3597 1894 
L 3597 1613 
L 953 1613 
Q 991 1019 1311 708 
Q 1631 397 2203 397 
Q 2534 397 2845 478 
Q 3156 559 3463 722 
L 3463 178 
Q 3153 47 2828 -22 
Q 2503 -91 2169 -91 
Q 1331 -91 842 396 
Q 353 884 353 1716 
Q 353 2575 817 3079 
Q 1281 3584 2069 3584 
Q 2775 3584 3186 3129 
Q 3597 2675 3597 1894 
z
M 3022 2063 
Q 3016 2534 2758 2815 
Q 2500 3097 2075 3097 
Q 1594 3097 1305 2825 
Q 1016 2553 972 2059 
L 3022 2063 
z
" transform="scale(0.015625)"/>
       <path id="DejaVuSans-61" d="M 2194 1759 
Q 1497 1759 1228 1600 
Q 959 1441 959 1056 
Q 959 750 1161 570 
Q 1363 391 1709 391 
Q 2188 391 2477 730 
Q 2766 1069 2766 1631 
L 2766 1759 
L 2194 1759 
z
M 3341 1997 
L 3341 0 
L 2766 0 
L 2766 531 
Q 2569 213 2275 61 
Q 1981 -91 1556 -91 
Q 1019 -91 701 211 
Q 384 513 384 1019 
Q 384 1609 779 1909 
Q 1175 2209 1959 2209 
L 2766 2209 
L 2766 2266 
Q 2766 2663 2505 2880 
Q 2244 3097 1772 3097 
Q 1472 3097 1187 3025 
Q 903 2953 641 2809 
L 641 3341 
Q 956 3463 1253 3523 
Q 1550 3584 1831 3584 
Q 2591 3584 2966 3190 
Q 3341 2797 3341 1997 
z
" transform="scale(0.015625)"/>
       <path id="DejaVuSans-6e" d="M 3513 2113 
L 3513 0 
L 2938 0 
L 2938 2094 
Q 2938 2591 2744 2837 
Q 2550 3084 2163 3084 
Q 1697 3084 1428 2787 
Q 1159 2491 1159 1978 
L 1159 0 
L 581 0 
L 581 3500 
L 1159 3500 
L 1159 2956 
Q 1366 3272 1645 3428 
Q 1925 3584 2291 3584 
Q 2894 3584 3203 3211 
Q 3513 2838 3513 2113 
z
" transform="scale(0.015625)"/>
       <path id="DejaVuSans-63" d="M 3122 3366 
L 3122 2828 
Q 2878 2963 2633 3030 
Q 2388 3097 2138 3097 
Q 1578 3097 1268 2742 
Q 959 2388 959 1747 
Q 959 1106 1268 751 
Q 1578 397 2138 397 
Q 2388 397 2633 464 
Q 2878 531 3122 666 
L 3122 134 
Q 2881 22 2623 -34 
Q 2366 -91 2075 -91 
Q 1284 -91 818 406 
Q 353 903 353 1747 
Q 353 2603 823 3093 
Q 1294 3584 2113 3584 
Q 2378 3584 2631 3529 
Q 2884 3475 3122 3366 
z
" transform="scale(0.015625)"/>
       <path id="DejaVuSans-6f" d="M 1959 3097 
Q 1497 3097 1228 2736 
Q 959 2375 959 1747 
Q 959 1119 1226 758 
Q 1494 397 1959 397 
Q 2419 397 2687 759 
Q 2956 1122 2956 1747 
Q 2956 2369 2687 2733 
Q 2419 3097 1959 3097 
z
M 1959 3584 
Q 2709 3584 3137 3096 
Q 3566 2609 3566 1747 
Q 3566 888 3137 398 
Q 2709 -91 1959 -91 
Q 1206 -91 779 398 
Q 353 888 353 1747 
Q 353 2609 779 3096 
Q 1206 3584 1959 3584 
z
" transform="scale(0.015625)"/>
       <path id="DejaVuSans-70" d="M 1159 525 
L 1159 -1331 
L 581 -1331 
L 581 3500 
L 1159 3500 
L 1159 2969 
Q 1341 3281 1617 3432 
Q 1894 3584 2278 3584 
Q 2916 3584 3314 3078 
Q 3713 2572 3713 1747 
Q 3713 922 3314 415 
Q 2916 -91 2278 -91 
Q 1894 -91 1617 61 
Q 1341 213 1159 525 
z
M 3116 1747 
Q 3116 2381 2855 2742 
Q 2594 3103 2138 3103 
Q 1681 3103 1420 2742 
Q 1159 2381 1159 1747 
Q 1159 1113 1420 752 
Q 1681 391 2138 391 
Q 2594 391 2855 752 
Q 3116 1113 3116 1747 
z
" transform="scale(0.015625)"/>
       <path id="DejaVuSans-69" d="M 603 3500 
L 1178 3500 
L 1178 0 
L 603 0 
L 603 3500 
z
M 603 4863 
L 1178 4863 
L 1178 4134 
L 603 4134 
L 603 4863 
z
" transform="scale(0.015625)"/>
      </defs>
      <use xlink:href="#DejaVuSans-43"/>
      <use xlink:href="#DejaVuSans-68" x="69.824219"/>
      <use xlink:href="#DejaVuSans-65" x="133.203125"/>
      <use xlink:href="#DejaVuSans-65" x="194.726562"/>
      <use xlink:href="#DejaVuSans-73" x="256.25"/>
      <use xlink:href="#DejaVuSans-65" x="308.349609"/>
      <use xlink:href="#DejaVuSans-6d" x="369.873047"/>
      <use xlink:href="#DejaVuSans-61" x="467.285156"/>
      <use xlink:href="#DejaVuSans-6e" x="528.564453"/>
      <use xlink:href="#DejaVuSans-20" x="591.943359"/>
      <use xlink:href="#DejaVuSans-63" x="623.730469"/>
      <use xlink:href="#DejaVuSans-6f" x="678.710938"/>
      <use xlink:href="#DejaVuSans-6d" x="739.892578"/>
      <use xlink:href="#DejaVuSans-70" x="837.304688"/>
      <use xlink:href="#DejaVuSans-65" x="900.78125"/>
      <use xlink:href="#DejaVuSans-6e" x="962.304688"/>
      <use xlink:href="#DejaVuSans-73" x="1025.683594"/>
      <use xlink:href="#DejaVuSans-61" x="1077.783203"/>
      <use xlink:href="#DejaVuSans-74" x="1139.0625"/>
      <use xlink:href="#DejaVuSans-69" x="1178.271484"/>
      <use xlink:href="#DejaVuSans-6f" x="1206.054688"/>
      <use xlink:href="#DejaVuSans-6e" x="1267.236328"/>
     </g>
    </g>
    <g id="line2d_19">
     <path style="fill: none; stroke: #0000ff; stroke-width: 1.5; stroke-linecap: square"/>
    </g>
    <g id="text_18">
     <!-- No compensation -->
     <g transform="translate(-11.4675 182.806125)scale(0.3 -0.3)">
      <defs>
       <path id="DejaVuSans-4e" d="M 628 4666 
L 1478 4666 
L 3547 763 
L 3547 4666 
L 4159 4666 
L 4159 0 
L 3309 0 
L 1241 3903 
L 1241 0 
L 628 0 
L 628 4666 
z
" transform="scale(0.015625)"/>
      </defs>
      <use xlink:href="#DejaVuSans-4e"/>
      <use xlink:href="#DejaVuSans-6f" x="74.804688"/>
      <use xlink:href="#DejaVuSans-20" x="135.986328"/>
      <use xlink:href="#DejaVuSans-63" x="167.773438"/>
      <use xlink:href="#DejaVuSans-6f" x="222.753906"/>
      <use xlink:href="#DejaVuSans-6d" x="283.935547"/>
      <use xlink:href="#DejaVuSans-70" x="381.347656"/>
      <use xlink:href="#DejaVuSans-65" x="444.824219"/>
      <use xlink:href="#DejaVuSans-6e" x="506.347656"/>
      <use xlink:href="#DejaVuSans-73" x="569.726562"/>
      <use xlink:href="#DejaVuSans-61" x="621.826172"/>
      <use xlink:href="#DejaVuSans-74" x="683.105469"/>
      <use xlink:href="#DejaVuSans-69" x="722.314453"/>
      <use xlink:href="#DejaVuSans-6f" x="750.097656"/>
      <use xlink:href="#DejaVuSans-6e" x="811.279297"/>
     </g>
    </g>
    <g id="line2d_20">
     <path style="fill: none; stroke: #008000; stroke-width: 1.5; stroke-linecap: square"/>
    </g>
    <g id="text_19">
     <!-- High Altitude (-1m) -->
     <g transform="translate(-11.4675 226.8405)scale(0.3 -0.3)">
      <defs>
       <path id="DejaVuSans-48" d="M 628 4666 
L 1259 4666 
L 1259 2753 
L 3553 2753 
L 3553 4666 
L 4184 4666 
L 4184 0 
L 3553 0 
L 3553 2222 
L 1259 2222 
L 1259 0 
L 628 0 
L 628 4666 
z
" transform="scale(0.015625)"/>
       <path id="DejaVuSans-67" d="M 2906 1791 
Q 2906 2416 2648 2759 
Q 2391 3103 1925 3103 
Q 1463 3103 1205 2759 
Q 947 2416 947 1791 
Q 947 1169 1205 825 
Q 1463 481 1925 481 
Q 2391 481 2648 825 
Q 2906 1169 2906 1791 
z
M 3481 434 
Q 3481 -459 3084 -895 
Q 2688 -1331 1869 -1331 
Q 1566 -1331 1297 -1286 
Q 1028 -1241 775 -1147 
L 775 -588 
Q 1028 -725 1275 -790 
Q 1522 -856 1778 -856 
Q 2344 -856 2625 -561 
Q 2906 -266 2906 331 
L 2906 616 
Q 2728 306 2450 153 
Q 2172 0 1784 0 
Q 1141 0 747 490 
Q 353 981 353 1791 
Q 353 2603 747 3093 
Q 1141 3584 1784 3584 
Q 2172 3584 2450 3431 
Q 2728 3278 2906 2969 
L 2906 3500 
L 3481 3500 
L 3481 434 
z
" transform="scale(0.015625)"/>
       <path id="DejaVuSans-41" d="M 2188 4044 
L 1331 1722 
L 3047 1722 
L 2188 4044 
z
M 1831 4666 
L 2547 4666 
L 4325 0 
L 3669 0 
L 3244 1197 
L 1141 1197 
L 716 0 
L 50 0 
L 1831 4666 
z
" transform="scale(0.015625)"/>
       <path id="DejaVuSans-6c" d="M 603 4863 
L 1178 4863 
L 1178 0 
L 603 0 
L 603 4863 
z
" transform="scale(0.015625)"/>
       <path id="DejaVuSans-75" d="M 544 1381 
L 544 3500 
L 1119 3500 
L 1119 1403 
Q 1119 906 1312 657 
Q 1506 409 1894 409 
Q 2359 409 2629 706 
Q 2900 1003 2900 1516 
L 2900 3500 
L 3475 3500 
L 3475 0 
L 2900 0 
L 2900 538 
Q 2691 219 2414 64 
Q 2138 -91 1772 -91 
Q 1169 -91 856 284 
Q 544 659 544 1381 
z
M 1991 3584 
L 1991 3584 
z
" transform="scale(0.015625)"/>
       <path id="DejaVuSans-64" d="M 2906 2969 
L 2906 4863 
L 3481 4863 
L 3481 0 
L 2906 0 
L 2906 525 
Q 2725 213 2448 61 
Q 2172 -91 1784 -91 
Q 1150 -91 751 415 
Q 353 922 353 1747 
Q 353 2572 751 3078 
Q 1150 3584 1784 3584 
Q 2172 3584 2448 3432 
Q 2725 3281 2906 2969 
z
M 947 1747 
Q 947 1113 1208 752 
Q 1469 391 1925 391 
Q 2381 391 2643 752 
Q 2906 1113 2906 1747 
Q 2906 2381 2643 2742 
Q 2381 3103 1925 3103 
Q 1469 3103 1208 2742 
Q 947 2381 947 1747 
z
" transform="scale(0.015625)"/>
       <path id="DejaVuSans-28" d="M 1984 4856 
Q 1566 4138 1362 3434 
Q 1159 2731 1159 2009 
Q 1159 1288 1364 580 
Q 1569 -128 1984 -844 
L 1484 -844 
Q 1016 -109 783 600 
Q 550 1309 550 2009 
Q 550 2706 781 3412 
Q 1013 4119 1484 4856 
L 1984 4856 
z
" transform="scale(0.015625)"/>
       <path id="DejaVuSans-2d" d="M 313 2009 
L 1997 2009 
L 1997 1497 
L 313 1497 
L 313 2009 
z
" transform="scale(0.015625)"/>
       <path id="DejaVuSans-29" d="M 513 4856 
L 1013 4856 
Q 1481 4119 1714 3412 
Q 1947 2706 1947 2009 
Q 1947 1309 1714 600 
Q 1481 -109 1013 -844 
L 513 -844 
Q 928 -128 1133 580 
Q 1338 1288 1338 2009 
Q 1338 2731 1133 3434 
Q 928 4138 513 4856 
z
" transform="scale(0.015625)"/>
      </defs>
      <use xlink:href="#DejaVuSans-48"/>
      <use xlink:href="#DejaVuSans-69" x="75.195312"/>
      <use xlink:href="#DejaVuSans-67" x="102.978516"/>
      <use xlink:href="#DejaVuSans-68" x="166.455078"/>
      <use xlink:href="#DejaVuSans-20" x="229.833984"/>
      <use xlink:href="#DejaVuSans-41" x="261.621094"/>
      <use xlink:href="#DejaVuSans-6c" x="330.029297"/>
      <use xlink:href="#DejaVuSans-74" x="357.8125"/>
      <use xlink:href="#DejaVuSans-69" x="397.021484"/>
      <use xlink:href="#DejaVuSans-74" x="424.804688"/>
      <use xlink:href="#DejaVuSans-75" x="464.013672"/>
      <use xlink:href="#DejaVuSans-64" x="527.392578"/>
      <use xlink:href="#DejaVuSans-65" x="590.869141"/>
      <use xlink:href="#DejaVuSans-20" x="652.392578"/>
      <use xlink:href="#DejaVuSans-28" x="684.179688"/>
      <use xlink:href="#DejaVuSans-2d" x="723.193359"/>
      <use xlink:href="#DejaVuSans-31" x="759.277344"/>
      <use xlink:href="#DejaVuSans-6d" x="822.900391"/>
      <use xlink:href="#DejaVuSans-29" x="920.3125"/>
     </g>
    </g>
   </g>
  </g>
 </g>
 <defs>
  <clipPath id="p286a09ba45">
   <rect x="57.6" y="41.472" width="357.12" height="266.112"/>
  </clipPath>
 </defs>
</svg>
