<?xml version="1.0" encoding="utf-8" standalone="no"?>
<!DOCTYPE svg PUBLIC "-//W3C//DTD SVG 1.1//EN"
  "http://www.w3.org/Graphics/SVG/1.1/DTD/svg11.dtd">
<svg xmlns:xlink="http://www.w3.org/1999/xlink" width="1382.4pt" height="645.12pt" viewBox="0 0 1382.4 645.12" xmlns="http://www.w3.org/2000/svg" version="1.1">
 <metadata>
  <rdf:RDF xmlns:dc="http://purl.org/dc/elements/1.1/" xmlns:cc="http://creativecommons.org/ns#" xmlns:rdf="http://www.w3.org/1999/02/22-rdf-syntax-ns#">
   <cc:Work>
    <dc:type rdf:resource="http://purl.org/dc/dcmitype/StillImage"/>
    <dc:date>2022-03-31T12:46:48.569847</dc:date>
    <dc:format>image/svg+xml</dc:format>
    <dc:creator>
     <cc:Agent>
      <dc:title>Matplotlib v3.5.1, https://matplotlib.org/</dc:title>
     </cc:Agent>
    </dc:creator>
   </cc:Work>
  </rdf:RDF>
 </metadata>
 <defs>
  <style type="text/css">*{stroke-linejoin: round; stroke-linecap: butt}</style>
 </defs>
 <g id="figure_1">
  <g id="patch_1">
   <path d="M 0 645.12 
L 1382.4 645.12 
L 1382.4 0 
L 0 0 
z
" style="fill: #ffffff"/>
  </g>
  <g id="axes_1">
   <g id="patch_2">
    <path d="M 172.8 574.1568 
L 1244.16 574.1568 
L 1244.16 77.4144 
L 172.8 77.4144 
z
" style="fill: #ffffff"/>
   </g>
   <g id="matplotlib.axis_1">
    <g id="xtick_1">
     <g id="line2d_1">
      <defs>
       <path id="m8d647bd19a" d="M 0 0 
L 0 3.5 
" style="stroke: #000000; stroke-width: 0.8"/>
      </defs>
      <g>
       <use xlink:href="#m8d647bd19a" x="278.79016" y="574.1568" style="stroke: #000000; stroke-width: 0.8"/>
      </g>
     </g>
     <g id="text_1">
      <!-- 0.2 -->
      <g transform="translate(270.838598 588.755238)scale(0.1 -0.1)">
       <defs>
        <path id="DejaVuSans-30" d="M 2034 4250 
Q 1547 4250 1301 3770 
Q 1056 3291 1056 2328 
Q 1056 1369 1301 889 
Q 1547 409 2034 409 
Q 2525 409 2770 889 
Q 3016 1369 3016 2328 
Q 3016 3291 2770 3770 
Q 2525 4250 2034 4250 
z
M 2034 4750 
Q 2819 4750 3233 4129 
Q 3647 3509 3647 2328 
Q 3647 1150 3233 529 
Q 2819 -91 2034 -91 
Q 1250 -91 836 529 
Q 422 1150 422 2328 
Q 422 3509 836 4129 
Q 1250 4750 2034 4750 
z
" transform="scale(0.015625)"/>
        <path id="DejaVuSans-2e" d="M 684 794 
L 1344 794 
L 1344 0 
L 684 0 
L 684 794 
z
" transform="scale(0.015625)"/>
        <path id="DejaVuSans-32" d="M 1228 531 
L 3431 531 
L 3431 0 
L 469 0 
L 469 531 
Q 828 903 1448 1529 
Q 2069 2156 2228 2338 
Q 2531 2678 2651 2914 
Q 2772 3150 2772 3378 
Q 2772 3750 2511 3984 
Q 2250 4219 1831 4219 
Q 1534 4219 1204 4116 
Q 875 4013 500 3803 
L 500 4441 
Q 881 4594 1212 4672 
Q 1544 4750 1819 4750 
Q 2544 4750 2975 4387 
Q 3406 4025 3406 3419 
Q 3406 3131 3298 2873 
Q 3191 2616 2906 2266 
Q 2828 2175 2409 1742 
Q 1991 1309 1228 531 
z
" transform="scale(0.015625)"/>
       </defs>
       <use xlink:href="#DejaVuSans-30"/>
       <use xlink:href="#DejaVuSans-2e" x="63.623047"/>
       <use xlink:href="#DejaVuSans-32" x="95.410156"/>
      </g>
     </g>
    </g>
    <g id="xtick_2">
     <g id="line2d_2">
      <g>
       <use xlink:href="#m8d647bd19a" x="507.958075" y="574.1568" style="stroke: #000000; stroke-width: 0.8"/>
      </g>
     </g>
     <g id="text_2">
      <!-- 0.4 -->
      <g transform="translate(500.006512 588.755238)scale(0.1 -0.1)">
       <defs>
        <path id="DejaVuSans-34" d="M 2419 4116 
L 825 1625 
L 2419 1625 
L 2419 4116 
z
M 2253 4666 
L 3047 4666 
L 3047 1625 
L 3713 1625 
L 3713 1100 
L 3047 1100 
L 3047 0 
L 2419 0 
L 2419 1100 
L 313 1100 
L 313 1709 
L 2253 4666 
z
" transform="scale(0.015625)"/>
       </defs>
       <use xlink:href="#DejaVuSans-30"/>
       <use xlink:href="#DejaVuSans-2e" x="63.623047"/>
       <use xlink:href="#DejaVuSans-34" x="95.410156"/>
      </g>
     </g>
    </g>
    <g id="xtick_3">
     <g id="line2d_3">
      <g>
       <use xlink:href="#m8d647bd19a" x="737.125989" y="574.1568" style="stroke: #000000; stroke-width: 0.8"/>
      </g>
     </g>
     <g id="text_3">
      <!-- 0.6 -->
      <g transform="translate(729.174427 588.755238)scale(0.1 -0.1)">
       <defs>
        <path id="DejaVuSans-36" d="M 2113 2584 
Q 1688 2584 1439 2293 
Q 1191 2003 1191 1497 
Q 1191 994 1439 701 
Q 1688 409 2113 409 
Q 2538 409 2786 701 
Q 3034 994 3034 1497 
Q 3034 2003 2786 2293 
Q 2538 2584 2113 2584 
z
M 3366 4563 
L 3366 3988 
Q 3128 4100 2886 4159 
Q 2644 4219 2406 4219 
Q 1781 4219 1451 3797 
Q 1122 3375 1075 2522 
Q 1259 2794 1537 2939 
Q 1816 3084 2150 3084 
Q 2853 3084 3261 2657 
Q 3669 2231 3669 1497 
Q 3669 778 3244 343 
Q 2819 -91 2113 -91 
Q 1303 -91 875 529 
Q 447 1150 447 2328 
Q 447 3434 972 4092 
Q 1497 4750 2381 4750 
Q 2619 4750 2861 4703 
Q 3103 4656 3366 4563 
z
" transform="scale(0.015625)"/>
       </defs>
       <use xlink:href="#DejaVuSans-30"/>
       <use xlink:href="#DejaVuSans-2e" x="63.623047"/>
       <use xlink:href="#DejaVuSans-36" x="95.410156"/>
      </g>
     </g>
    </g>
    <g id="xtick_4">
     <g id="line2d_4">
      <g>
       <use xlink:href="#m8d647bd19a" x="966.293904" y="574.1568" style="stroke: #000000; stroke-width: 0.8"/>
      </g>
     </g>
     <g id="text_4">
      <!-- 0.8 -->
      <g transform="translate(958.342341 588.755238)scale(0.1 -0.1)">
       <defs>
        <path id="DejaVuSans-38" d="M 2034 2216 
Q 1584 2216 1326 1975 
Q 1069 1734 1069 1313 
Q 1069 891 1326 650 
Q 1584 409 2034 409 
Q 2484 409 2743 651 
Q 3003 894 3003 1313 
Q 3003 1734 2745 1975 
Q 2488 2216 2034 2216 
z
M 1403 2484 
Q 997 2584 770 2862 
Q 544 3141 544 3541 
Q 544 4100 942 4425 
Q 1341 4750 2034 4750 
Q 2731 4750 3128 4425 
Q 3525 4100 3525 3541 
Q 3525 3141 3298 2862 
Q 3072 2584 2669 2484 
Q 3125 2378 3379 2068 
Q 3634 1759 3634 1313 
Q 3634 634 3220 271 
Q 2806 -91 2034 -91 
Q 1263 -91 848 271 
Q 434 634 434 1313 
Q 434 1759 690 2068 
Q 947 2378 1403 2484 
z
M 1172 3481 
Q 1172 3119 1398 2916 
Q 1625 2713 2034 2713 
Q 2441 2713 2670 2916 
Q 2900 3119 2900 3481 
Q 2900 3844 2670 4047 
Q 2441 4250 2034 4250 
Q 1625 4250 1398 4047 
Q 1172 3844 1172 3481 
z
" transform="scale(0.015625)"/>
       </defs>
       <use xlink:href="#DejaVuSans-30"/>
       <use xlink:href="#DejaVuSans-2e" x="63.623047"/>
       <use xlink:href="#DejaVuSans-38" x="95.410156"/>
      </g>
     </g>
    </g>
    <g id="xtick_5">
     <g id="line2d_5">
      <g>
       <use xlink:href="#m8d647bd19a" x="1195.461818" y="574.1568" style="stroke: #000000; stroke-width: 0.8"/>
      </g>
     </g>
     <g id="text_5">
      <!-- 1.0 -->
      <g transform="translate(1187.510256 588.755238)scale(0.1 -0.1)">
       <defs>
        <path id="DejaVuSans-31" d="M 794 531 
L 1825 531 
L 1825 4091 
L 703 3866 
L 703 4441 
L 1819 4666 
L 2450 4666 
L 2450 531 
L 3481 531 
L 3481 0 
L 794 0 
L 794 531 
z
" transform="scale(0.015625)"/>
       </defs>
       <use xlink:href="#DejaVuSans-31"/>
       <use xlink:href="#DejaVuSans-2e" x="63.623047"/>
       <use xlink:href="#DejaVuSans-30" x="95.410156"/>
      </g>
     </g>
    </g>
    <g id="text_6">
     <!-- z [m] -->
     <g transform="translate(695.494844 602.433363)scale(0.1 -0.1)">
      <defs>
       <path id="DejaVuSans-7a" d="M 353 3500 
L 3084 3500 
L 3084 2975 
L 922 459 
L 3084 459 
L 3084 0 
L 275 0 
L 275 525 
L 2438 3041 
L 353 3041 
L 353 3500 
z
" transform="scale(0.015625)"/>
       <path id="DejaVuSans-20" transform="scale(0.015625)"/>
       <path id="DejaVuSans-5b" d="M 550 4863 
L 1875 4863 
L 1875 4416 
L 1125 4416 
L 1125 -397 
L 1875 -397 
L 1875 -844 
L 550 -844 
L 550 4863 
z
" transform="scale(0.015625)"/>
       <path id="DejaVuSans-6d" d="M 3328 2828 
Q 3544 3216 3844 3400 
Q 4144 3584 4550 3584 
Q 5097 3584 5394 3201 
Q 5691 2819 5691 2113 
L 5691 0 
L 5113 0 
L 5113 2094 
Q 5113 2597 4934 2840 
Q 4756 3084 4391 3084 
Q 3944 3084 3684 2787 
Q 3425 2491 3425 1978 
L 3425 0 
L 2847 0 
L 2847 2094 
Q 2847 2600 2669 2842 
Q 2491 3084 2119 3084 
Q 1678 3084 1418 2786 
Q 1159 2488 1159 1978 
L 1159 0 
L 581 0 
L 581 3500 
L 1159 3500 
L 1159 2956 
Q 1356 3278 1631 3431 
Q 1906 3584 2284 3584 
Q 2666 3584 2933 3390 
Q 3200 3197 3328 2828 
z
" transform="scale(0.015625)"/>
       <path id="DejaVuSans-5d" d="M 1947 4863 
L 1947 -844 
L 622 -844 
L 622 -397 
L 1369 -397 
L 1369 4416 
L 622 4416 
L 622 4863 
L 1947 4863 
z
" transform="scale(0.015625)"/>
      </defs>
      <use xlink:href="#DejaVuSans-7a"/>
      <use xlink:href="#DejaVuSans-20" x="52.490234"/>
      <use xlink:href="#DejaVuSans-5b" x="84.277344"/>
      <use xlink:href="#DejaVuSans-6d" x="123.291016"/>
      <use xlink:href="#DejaVuSans-5d" x="220.703125"/>
     </g>
    </g>
   </g>
   <g id="matplotlib.axis_2">
    <g id="ytick_1">
     <g id="line2d_6">
      <defs>
       <path id="m878d55e3e3" d="M 0 0 
L -3.5 0 
" style="stroke: #000000; stroke-width: 0.8"/>
      </defs>
      <g>
       <use xlink:href="#m878d55e3e3" x="172.8" y="549.881782" style="stroke: #000000; stroke-width: 0.8"/>
      </g>
     </g>
     <g id="text_7">
      <!-- 1.0 -->
      <g transform="translate(149.896875 553.681001)scale(0.1 -0.1)">
       <use xlink:href="#DejaVuSans-31"/>
       <use xlink:href="#DejaVuSans-2e" x="63.623047"/>
       <use xlink:href="#DejaVuSans-30" x="95.410156"/>
      </g>
     </g>
    </g>
    <g id="ytick_2">
     <g id="line2d_7">
      <g>
       <use xlink:href="#m878d55e3e3" x="172.8" y="452.406009" style="stroke: #000000; stroke-width: 0.8"/>
      </g>
     </g>
     <g id="text_8">
      <!-- 1.2 -->
      <g transform="translate(149.896875 456.205228)scale(0.1 -0.1)">
       <use xlink:href="#DejaVuSans-31"/>
       <use xlink:href="#DejaVuSans-2e" x="63.623047"/>
       <use xlink:href="#DejaVuSans-32" x="95.410156"/>
      </g>
     </g>
    </g>
    <g id="ytick_3">
     <g id="line2d_8">
      <g>
       <use xlink:href="#m878d55e3e3" x="172.8" y="354.930236" style="stroke: #000000; stroke-width: 0.8"/>
      </g>
     </g>
     <g id="text_9">
      <!-- 1.4 -->
      <g transform="translate(149.896875 358.729455)scale(0.1 -0.1)">
       <use xlink:href="#DejaVuSans-31"/>
       <use xlink:href="#DejaVuSans-2e" x="63.623047"/>
       <use xlink:href="#DejaVuSans-34" x="95.410156"/>
      </g>
     </g>
    </g>
    <g id="ytick_4">
     <g id="line2d_9">
      <g>
       <use xlink:href="#m878d55e3e3" x="172.8" y="257.454464" style="stroke: #000000; stroke-width: 0.8"/>
      </g>
     </g>
     <g id="text_10">
      <!-- 1.6 -->
      <g transform="translate(149.896875 261.253682)scale(0.1 -0.1)">
       <use xlink:href="#DejaVuSans-31"/>
       <use xlink:href="#DejaVuSans-2e" x="63.623047"/>
       <use xlink:href="#DejaVuSans-36" x="95.410156"/>
      </g>
     </g>
    </g>
    <g id="ytick_5">
     <g id="line2d_10">
      <g>
       <use xlink:href="#m878d55e3e3" x="172.8" y="159.978691" style="stroke: #000000; stroke-width: 0.8"/>
      </g>
     </g>
     <g id="text_11">
      <!-- 1.8 -->
      <g transform="translate(149.896875 163.77791)scale(0.1 -0.1)">
       <use xlink:href="#DejaVuSans-31"/>
       <use xlink:href="#DejaVuSans-2e" x="63.623047"/>
       <use xlink:href="#DejaVuSans-38" x="95.410156"/>
      </g>
     </g>
    </g>
    <g id="text_12">
     <!-- T_ige / T_oge [s] -->
     <g transform="translate(143.539062 366.801225)rotate(-90)scale(0.1 -0.1)">
      <defs>
       <path id="DejaVuSans-54" d="M -19 4666 
L 3928 4666 
L 3928 4134 
L 2272 4134 
L 2272 0 
L 1638 0 
L 1638 4134 
L -19 4134 
L -19 4666 
z
" transform="scale(0.015625)"/>
       <path id="DejaVuSans-5f" d="M 3263 -1063 
L 3263 -1509 
L -63 -1509 
L -63 -1063 
L 3263 -1063 
z
" transform="scale(0.015625)"/>
       <path id="DejaVuSans-69" d="M 603 3500 
L 1178 3500 
L 1178 0 
L 603 0 
L 603 3500 
z
M 603 4863 
L 1178 4863 
L 1178 4134 
L 603 4134 
L 603 4863 
z
" transform="scale(0.015625)"/>
       <path id="DejaVuSans-67" d="M 2906 1791 
Q 2906 2416 2648 2759 
Q 2391 3103 1925 3103 
Q 1463 3103 1205 2759 
Q 947 2416 947 1791 
Q 947 1169 1205 825 
Q 1463 481 1925 481 
Q 2391 481 2648 825 
Q 2906 1169 2906 1791 
z
M 3481 434 
Q 3481 -459 3084 -895 
Q 2688 -1331 1869 -1331 
Q 1566 -1331 1297 -1286 
Q 1028 -1241 775 -1147 
L 775 -588 
Q 1028 -725 1275 -790 
Q 1522 -856 1778 -856 
Q 2344 -856 2625 -561 
Q 2906 -266 2906 331 
L 2906 616 
Q 2728 306 2450 153 
Q 2172 0 1784 0 
Q 1141 0 747 490 
Q 353 981 353 1791 
Q 353 2603 747 3093 
Q 1141 3584 1784 3584 
Q 2172 3584 2450 3431 
Q 2728 3278 2906 2969 
L 2906 3500 
L 3481 3500 
L 3481 434 
z
" transform="scale(0.015625)"/>
       <path id="DejaVuSans-65" d="M 3597 1894 
L 3597 1613 
L 953 1613 
Q 991 1019 1311 708 
Q 1631 397 2203 397 
Q 2534 397 2845 478 
Q 3156 559 3463 722 
L 3463 178 
Q 3153 47 2828 -22 
Q 2503 -91 2169 -91 
Q 1331 -91 842 396 
Q 353 884 353 1716 
Q 353 2575 817 3079 
Q 1281 3584 2069 3584 
Q 2775 3584 3186 3129 
Q 3597 2675 3597 1894 
z
M 3022 2063 
Q 3016 2534 2758 2815 
Q 2500 3097 2075 3097 
Q 1594 3097 1305 2825 
Q 1016 2553 972 2059 
L 3022 2063 
z
" transform="scale(0.015625)"/>
       <path id="DejaVuSans-2f" d="M 1625 4666 
L 2156 4666 
L 531 -594 
L 0 -594 
L 1625 4666 
z
" transform="scale(0.015625)"/>
       <path id="DejaVuSans-6f" d="M 1959 3097 
Q 1497 3097 1228 2736 
Q 959 2375 959 1747 
Q 959 1119 1226 758 
Q 1494 397 1959 397 
Q 2419 397 2687 759 
Q 2956 1122 2956 1747 
Q 2956 2369 2687 2733 
Q 2419 3097 1959 3097 
z
M 1959 3584 
Q 2709 3584 3137 3096 
Q 3566 2609 3566 1747 
Q 3566 888 3137 398 
Q 2709 -91 1959 -91 
Q 1206 -91 779 398 
Q 353 888 353 1747 
Q 353 2609 779 3096 
Q 1206 3584 1959 3584 
z
" transform="scale(0.015625)"/>
       <path id="DejaVuSans-73" d="M 2834 3397 
L 2834 2853 
Q 2591 2978 2328 3040 
Q 2066 3103 1784 3103 
Q 1356 3103 1142 2972 
Q 928 2841 928 2578 
Q 928 2378 1081 2264 
Q 1234 2150 1697 2047 
L 1894 2003 
Q 2506 1872 2764 1633 
Q 3022 1394 3022 966 
Q 3022 478 2636 193 
Q 2250 -91 1575 -91 
Q 1294 -91 989 -36 
Q 684 19 347 128 
L 347 722 
Q 666 556 975 473 
Q 1284 391 1588 391 
Q 1994 391 2212 530 
Q 2431 669 2431 922 
Q 2431 1156 2273 1281 
Q 2116 1406 1581 1522 
L 1381 1569 
Q 847 1681 609 1914 
Q 372 2147 372 2553 
Q 372 3047 722 3315 
Q 1072 3584 1716 3584 
Q 2034 3584 2315 3537 
Q 2597 3491 2834 3397 
z
" transform="scale(0.015625)"/>
      </defs>
      <use xlink:href="#DejaVuSans-54"/>
      <use xlink:href="#DejaVuSans-5f" x="61.083984"/>
      <use xlink:href="#DejaVuSans-69" x="111.083984"/>
      <use xlink:href="#DejaVuSans-67" x="138.867188"/>
      <use xlink:href="#DejaVuSans-65" x="202.34375"/>
      <use xlink:href="#DejaVuSans-20" x="263.867188"/>
      <use xlink:href="#DejaVuSans-2f" x="295.654297"/>
      <use xlink:href="#DejaVuSans-20" x="329.345703"/>
      <use xlink:href="#DejaVuSans-54" x="361.132812"/>
      <use xlink:href="#DejaVuSans-5f" x="422.216797"/>
      <use xlink:href="#DejaVuSans-6f" x="472.216797"/>
      <use xlink:href="#DejaVuSans-67" x="533.398438"/>
      <use xlink:href="#DejaVuSans-65" x="596.875"/>
      <use xlink:href="#DejaVuSans-20" x="658.398438"/>
      <use xlink:href="#DejaVuSans-5b" x="690.185547"/>
      <use xlink:href="#DejaVuSans-73" x="729.199219"/>
      <use xlink:href="#DejaVuSans-5d" x="781.298828"/>
     </g>
    </g>
   </g>
   <g id="line2d_11">
    <path d="M 221.498182 529.574329 
L 228.806563 531.25911 
L 236.60217 532.832768 
L 245.372228 534.373738 
L 255.116737 535.85098 
L 265.835696 537.242855 
L 277.529106 538.535953 
L 290.684193 539.765482 
L 305.788181 540.944493 
L 322.841071 542.042699 
L 342.330089 543.06594 
L 364.742459 544.012252 
L 391.052632 544.890902 
L 421.747834 545.687095 
L 458.776967 546.417142 
L 503.601706 547.071295 
L 559.632631 547.65757 
L 631.254769 548.173423 
L 725.776503 548.618823 
L 855.378467 548.993112 
L 1043.934709 549.298565 
L 1195.461818 549.442746 
L 1195.461818 549.442746 
" clip-path="url(#pfd8a589967)" style="fill: none; stroke: #ff0000; stroke-width: 1.5; stroke-linecap: square"/>
   </g>
   <g id="line2d_12">
    <path d="M 221.498182 521.147399 
L 227.832112 523.290829 
L 234.653268 525.361664 
L 241.96165 527.344417 
L 249.757257 529.228096 
L 258.040089 531.005646 
L 267.297372 532.760208 
L 277.041881 534.383266 
L 287.76084 535.946032 
L 299.454251 537.428966 
L 312.609337 538.86866 
L 327.2261 540.236354 
L 343.30454 541.512962 
L 361.33188 542.717505 
L 381.795349 543.855606 
L 405.182169 544.924528 
L 431.979568 545.917417 
L 462.67477 546.826695 
L 498.729452 547.666562 
L 541.60529 548.435644 
L 593.251186 549.13192 
L 656.590492 549.755666 
L 736.495462 550.310266 
L 839.787254 550.793448 
L 978.159276 551.205788 
L 1173.049448 551.548937 
L 1195.461818 551.5776 
L 1195.461818 551.5776 
" clip-path="url(#pfd8a589967)" style="fill: none; stroke: #0000ff; stroke-width: 1.5; stroke-linecap: square"/>
   </g>
   <g id="line2d_13">
    <path d="M 221.498182 99.9936 
L 223.934309 123.407375 
L 226.370436 144.786676 
L 228.806563 164.380206 
L 231.24269 182.397875 
L 233.678818 199.018078 
L 236.60217 217.33094 
L 239.525523 234.073852 
L 242.448875 249.435082 
L 245.372228 263.57413 
L 248.295581 276.627012 
L 251.218933 288.710421 
L 254.142286 299.925037 
L 257.065638 310.358175 
L 260.476216 321.643445 
L 263.886794 332.072958 
L 267.297372 341.736897 
L 270.70795 350.713335 
L 274.118528 359.07019 
L 277.529106 366.866819 
L 280.939684 374.155325 
L 284.837488 381.921508 
L 288.735291 389.143974 
L 292.633095 395.875255 
L 296.530898 402.161424 
L 300.428702 408.043056 
L 304.326505 413.556018 
L 308.711534 419.356903 
L 313.096563 424.771424 
L 317.481592 429.834868 
L 321.866621 434.578429 
L 326.738875 439.50744 
L 331.611129 444.109229 
L 336.483384 448.413437 
L 341.842863 452.835587 
L 347.202343 456.960216 
L 352.561823 460.814524 
L 358.408528 464.739123 
L 364.255233 468.398192 
L 370.589164 472.090681 
L 376.923094 475.527264 
L 383.74425 478.969404 
L 390.565406 482.168741 
L 397.873788 485.353297 
L 405.669395 488.500027 
L 413.952227 491.589275 
L 422.235059 494.443555 
L 431.005117 497.236131 
L 440.2624 499.954309 
L 450.006909 502.587947 
L 460.238643 505.12924 
L 471.444828 507.678622 
L 483.138238 510.107936 
L 495.806099 512.505102 
L 508.961186 514.767356 
L 523.090724 516.971305 
L 538.194712 519.1012 
L 554.273151 521.145128 
L 571.813267 523.14732 
L 590.815058 525.085543 
L 611.278527 526.942979 
L 633.203671 528.707697 
L 657.077717 530.404553 
L 683.38789 532.046094 
L 712.134191 533.610842 
L 743.803844 535.105572 
L 778.396849 536.51262 
L 816.887658 537.852612 
L 859.763496 539.119552 
L 907.998814 540.318173 
L 962.568062 541.446486 
L 1024.445692 542.499079 
L 1095.580605 543.481855 
L 1177.921703 544.392016 
L 1195.461818 544.560622 
L 1195.461818 544.560622 
" clip-path="url(#pfd8a589967)" style="fill: none; stroke: #008000; stroke-width: 1.5; stroke-linecap: square"/>
   </g>
   <g id="line2d_14">
    <path d="M 221.498182 387.422161 
L 224.421534 394.528298 
L 227.832112 402.202239 
L 231.24269 409.281616 
L 234.653268 415.829552 
L 238.063846 421.900686 
L 241.474424 427.542541 
L 244.885003 432.796644 
L 248.782806 438.373074 
L 252.680609 443.538027 
L 256.578413 448.332819 
L 260.476216 452.793532 
L 264.861245 457.451749 
L 269.246274 461.766469 
L 273.631303 465.771976 
L 278.016332 469.498252 
L 282.888586 473.34297 
L 287.76084 476.907003 
L 293.12032 480.536092 
L 298.4798 483.890903 
L 304.326505 487.27049 
L 310.17321 490.38809 
L 316.507141 493.501282 
L 322.841071 496.368772 
L 329.662227 499.211667 
L 336.970609 502.00633 
L 344.766216 504.733176 
L 352.561823 507.227657 
L 360.844655 509.652736 
L 369.614713 511.996699 
L 379.359221 514.363572 
L 389.590955 516.613059 
L 400.309915 518.74368 
L 412.003325 520.838621 
L 424.671187 522.874325 
L 438.313499 524.832602 
L 452.930261 526.700169 
L 468.521475 528.468078 
L 485.574365 530.176974 
L 504.088932 531.808108 
L 524.5524 533.383633 
L 546.96477 534.881815 
L 571.813267 536.314193 
L 599.097891 537.661104 
L 629.793093 538.948261 
L 663.898873 540.15222 
L 702.389682 541.28545 
L 746.239971 542.349821 
L 796.42419 543.341215 
L 854.891242 544.267044 
L 923.102802 545.117969 
L 1003.982224 545.897516 
L 1101.42731 546.606299 
L 1195.461818 547.124768 
L 1195.461818 547.124768 
" clip-path="url(#pfd8a589967)" style="fill: none; stroke: #808000; stroke-width: 1.5; stroke-linecap: square"/>
   </g>
   <g id="patch_3">
    <path d="M 172.8 574.1568 
L 172.8 77.4144 
" style="fill: none; stroke: #000000; stroke-width: 0.8; stroke-linejoin: miter; stroke-linecap: square"/>
   </g>
   <g id="patch_4">
    <path d="M 1244.16 574.1568 
L 1244.16 77.4144 
" style="fill: none; stroke: #000000; stroke-width: 0.8; stroke-linejoin: miter; stroke-linecap: square"/>
   </g>
   <g id="patch_5">
    <path d="M 172.8 574.1568 
L 1244.16 574.1568 
" style="fill: none; stroke: #000000; stroke-width: 0.8; stroke-linejoin: miter; stroke-linecap: square"/>
   </g>
   <g id="patch_6">
    <path d="M 172.8 77.4144 
L 1244.16 77.4144 
" style="fill: none; stroke: #000000; stroke-width: 0.8; stroke-linejoin: miter; stroke-linecap: square"/>
   </g>
   <g id="legend_1">
    <g id="patch_7">
     <path d="M 727.9725 277.5519 
L 1223.16 277.5519 
Q 1229.16 277.5519 1229.16 271.5519 
L 1229.16 98.4144 
Q 1229.16 92.4144 1223.16 92.4144 
L 727.9725 92.4144 
Q 721.9725 92.4144 721.9725 98.4144 
L 721.9725 271.5519 
Q 721.9725 277.5519 727.9725 277.5519 
z
" style="fill: #ffffff; opacity: 0.8; stroke: #cccccc; stroke-linejoin: miter"/>
    </g>
    <g id="line2d_15">
     <path d="M 733.9725 116.709713 
L 763.9725 116.709713 
L 793.9725 116.709713 
" style="fill: none; stroke: #ff0000; stroke-width: 1.5; stroke-linecap: square"/>
    </g>
    <g id="text_13">
     <!-- Cheeseman compensation -->
     <g transform="translate(817.9725 127.209713)scale(0.3 -0.3)">
      <defs>
       <path id="DejaVuSans-43" d="M 4122 4306 
L 4122 3641 
Q 3803 3938 3442 4084 
Q 3081 4231 2675 4231 
Q 1875 4231 1450 3742 
Q 1025 3253 1025 2328 
Q 1025 1406 1450 917 
Q 1875 428 2675 428 
Q 3081 428 3442 575 
Q 3803 722 4122 1019 
L 4122 359 
Q 3791 134 3420 21 
Q 3050 -91 2638 -91 
Q 1578 -91 968 557 
Q 359 1206 359 2328 
Q 359 3453 968 4101 
Q 1578 4750 2638 4750 
Q 3056 4750 3426 4639 
Q 3797 4528 4122 4306 
z
" transform="scale(0.015625)"/>
       <path id="DejaVuSans-68" d="M 3513 2113 
L 3513 0 
L 2938 0 
L 2938 2094 
Q 2938 2591 2744 2837 
Q 2550 3084 2163 3084 
Q 1697 3084 1428 2787 
Q 1159 2491 1159 1978 
L 1159 0 
L 581 0 
L 581 4863 
L 1159 4863 
L 1159 2956 
Q 1366 3272 1645 3428 
Q 1925 3584 2291 3584 
Q 2894 3584 3203 3211 
Q 3513 2838 3513 2113 
z
" transform="scale(0.015625)"/>
       <path id="DejaVuSans-61" d="M 2194 1759 
Q 1497 1759 1228 1600 
Q 959 1441 959 1056 
Q 959 750 1161 570 
Q 1363 391 1709 391 
Q 2188 391 2477 730 
Q 2766 1069 2766 1631 
L 2766 1759 
L 2194 1759 
z
M 3341 1997 
L 3341 0 
L 2766 0 
L 2766 531 
Q 2569 213 2275 61 
Q 1981 -91 1556 -91 
Q 1019 -91 701 211 
Q 384 513 384 1019 
Q 384 1609 779 1909 
Q 1175 2209 1959 2209 
L 2766 2209 
L 2766 2266 
Q 2766 2663 2505 2880 
Q 2244 3097 1772 3097 
Q 1472 3097 1187 3025 
Q 903 2953 641 2809 
L 641 3341 
Q 956 3463 1253 3523 
Q 1550 3584 1831 3584 
Q 2591 3584 2966 3190 
Q 3341 2797 3341 1997 
z
" transform="scale(0.015625)"/>
       <path id="DejaVuSans-6e" d="M 3513 2113 
L 3513 0 
L 2938 0 
L 2938 2094 
Q 2938 2591 2744 2837 
Q 2550 3084 2163 3084 
Q 1697 3084 1428 2787 
Q 1159 2491 1159 1978 
L 1159 0 
L 581 0 
L 581 3500 
L 1159 3500 
L 1159 2956 
Q 1366 3272 1645 3428 
Q 1925 3584 2291 3584 
Q 2894 3584 3203 3211 
Q 3513 2838 3513 2113 
z
" transform="scale(0.015625)"/>
       <path id="DejaVuSans-63" d="M 3122 3366 
L 3122 2828 
Q 2878 2963 2633 3030 
Q 2388 3097 2138 3097 
Q 1578 3097 1268 2742 
Q 959 2388 959 1747 
Q 959 1106 1268 751 
Q 1578 397 2138 397 
Q 2388 397 2633 464 
Q 2878 531 3122 666 
L 3122 134 
Q 2881 22 2623 -34 
Q 2366 -91 2075 -91 
Q 1284 -91 818 406 
Q 353 903 353 1747 
Q 353 2603 823 3093 
Q 1294 3584 2113 3584 
Q 2378 3584 2631 3529 
Q 2884 3475 3122 3366 
z
" transform="scale(0.015625)"/>
       <path id="DejaVuSans-70" d="M 1159 525 
L 1159 -1331 
L 581 -1331 
L 581 3500 
L 1159 3500 
L 1159 2969 
Q 1341 3281 1617 3432 
Q 1894 3584 2278 3584 
Q 2916 3584 3314 3078 
Q 3713 2572 3713 1747 
Q 3713 922 3314 415 
Q 2916 -91 2278 -91 
Q 1894 -91 1617 61 
Q 1341 213 1159 525 
z
M 3116 1747 
Q 3116 2381 2855 2742 
Q 2594 3103 2138 3103 
Q 1681 3103 1420 2742 
Q 1159 2381 1159 1747 
Q 1159 1113 1420 752 
Q 1681 391 2138 391 
Q 2594 391 2855 752 
Q 3116 1113 3116 1747 
z
" transform="scale(0.015625)"/>
       <path id="DejaVuSans-74" d="M 1172 4494 
L 1172 3500 
L 2356 3500 
L 2356 3053 
L 1172 3053 
L 1172 1153 
Q 1172 725 1289 603 
Q 1406 481 1766 481 
L 2356 481 
L 2356 0 
L 1766 0 
Q 1100 0 847 248 
Q 594 497 594 1153 
L 594 3053 
L 172 3053 
L 172 3500 
L 594 3500 
L 594 4494 
L 1172 4494 
z
" transform="scale(0.015625)"/>
      </defs>
      <use xlink:href="#DejaVuSans-43"/>
      <use xlink:href="#DejaVuSans-68" x="69.824219"/>
      <use xlink:href="#DejaVuSans-65" x="133.203125"/>
      <use xlink:href="#DejaVuSans-65" x="194.726562"/>
      <use xlink:href="#DejaVuSans-73" x="256.25"/>
      <use xlink:href="#DejaVuSans-65" x="308.349609"/>
      <use xlink:href="#DejaVuSans-6d" x="369.873047"/>
      <use xlink:href="#DejaVuSans-61" x="467.285156"/>
      <use xlink:href="#DejaVuSans-6e" x="528.564453"/>
      <use xlink:href="#DejaVuSans-20" x="591.943359"/>
      <use xlink:href="#DejaVuSans-63" x="623.730469"/>
      <use xlink:href="#DejaVuSans-6f" x="678.710938"/>
      <use xlink:href="#DejaVuSans-6d" x="739.892578"/>
      <use xlink:href="#DejaVuSans-70" x="837.304688"/>
      <use xlink:href="#DejaVuSans-65" x="900.78125"/>
      <use xlink:href="#DejaVuSans-6e" x="962.304688"/>
      <use xlink:href="#DejaVuSans-73" x="1025.683594"/>
      <use xlink:href="#DejaVuSans-61" x="1077.783203"/>
      <use xlink:href="#DejaVuSans-74" x="1139.0625"/>
      <use xlink:href="#DejaVuSans-69" x="1178.271484"/>
      <use xlink:href="#DejaVuSans-6f" x="1206.054688"/>
      <use xlink:href="#DejaVuSans-6e" x="1267.236328"/>
     </g>
    </g>
    <g id="line2d_16">
     <path d="M 733.9725 160.744088 
L 763.9725 160.744088 
L 793.9725 160.744088 
" style="fill: none; stroke: #0000ff; stroke-width: 1.5; stroke-linecap: square"/>
    </g>
    <g id="text_14">
     <!-- Hayden compensation -->
     <g transform="translate(817.9725 171.244088)scale(0.3 -0.3)">
      <defs>
       <path id="DejaVuSans-48" d="M 628 4666 
L 1259 4666 
L 1259 2753 
L 3553 2753 
L 3553 4666 
L 4184 4666 
L 4184 0 
L 3553 0 
L 3553 2222 
L 1259 2222 
L 1259 0 
L 628 0 
L 628 4666 
z
" transform="scale(0.015625)"/>
       <path id="DejaVuSans-79" d="M 2059 -325 
Q 1816 -950 1584 -1140 
Q 1353 -1331 966 -1331 
L 506 -1331 
L 506 -850 
L 844 -850 
Q 1081 -850 1212 -737 
Q 1344 -625 1503 -206 
L 1606 56 
L 191 3500 
L 800 3500 
L 1894 763 
L 2988 3500 
L 3597 3500 
L 2059 -325 
z
" transform="scale(0.015625)"/>
       <path id="DejaVuSans-64" d="M 2906 2969 
L 2906 4863 
L 3481 4863 
L 3481 0 
L 2906 0 
L 2906 525 
Q 2725 213 2448 61 
Q 2172 -91 1784 -91 
Q 1150 -91 751 415 
Q 353 922 353 1747 
Q 353 2572 751 3078 
Q 1150 3584 1784 3584 
Q 2172 3584 2448 3432 
Q 2725 3281 2906 2969 
z
M 947 1747 
Q 947 1113 1208 752 
Q 1469 391 1925 391 
Q 2381 391 2643 752 
Q 2906 1113 2906 1747 
Q 2906 2381 2643 2742 
Q 2381 3103 1925 3103 
Q 1469 3103 1208 2742 
Q 947 2381 947 1747 
z
" transform="scale(0.015625)"/>
      </defs>
      <use xlink:href="#DejaVuSans-48"/>
      <use xlink:href="#DejaVuSans-61" x="75.195312"/>
      <use xlink:href="#DejaVuSans-79" x="136.474609"/>
      <use xlink:href="#DejaVuSans-64" x="195.654297"/>
      <use xlink:href="#DejaVuSans-65" x="259.130859"/>
      <use xlink:href="#DejaVuSans-6e" x="320.654297"/>
      <use xlink:href="#DejaVuSans-20" x="384.033203"/>
      <use xlink:href="#DejaVuSans-63" x="415.820312"/>
      <use xlink:href="#DejaVuSans-6f" x="470.800781"/>
      <use xlink:href="#DejaVuSans-6d" x="531.982422"/>
      <use xlink:href="#DejaVuSans-70" x="629.394531"/>
      <use xlink:href="#DejaVuSans-65" x="692.871094"/>
      <use xlink:href="#DejaVuSans-6e" x="754.394531"/>
      <use xlink:href="#DejaVuSans-73" x="817.773438"/>
      <use xlink:href="#DejaVuSans-61" x="869.873047"/>
      <use xlink:href="#DejaVuSans-74" x="931.152344"/>
      <use xlink:href="#DejaVuSans-69" x="970.361328"/>
      <use xlink:href="#DejaVuSans-6f" x="998.144531"/>
      <use xlink:href="#DejaVuSans-6e" x="1059.326172"/>
     </g>
    </g>
    <g id="line2d_17">
     <path d="M 733.9725 204.778463 
L 763.9725 204.778463 
L 793.9725 204.778463 
" style="fill: none; stroke: #008000; stroke-width: 1.5; stroke-linecap: square"/>
    </g>
    <g id="text_15">
     <!-- Sanchez compensation -->
     <g transform="translate(817.9725 215.278463)scale(0.3 -0.3)">
      <defs>
       <path id="DejaVuSans-53" d="M 3425 4513 
L 3425 3897 
Q 3066 4069 2747 4153 
Q 2428 4238 2131 4238 
Q 1616 4238 1336 4038 
Q 1056 3838 1056 3469 
Q 1056 3159 1242 3001 
Q 1428 2844 1947 2747 
L 2328 2669 
Q 3034 2534 3370 2195 
Q 3706 1856 3706 1288 
Q 3706 609 3251 259 
Q 2797 -91 1919 -91 
Q 1588 -91 1214 -16 
Q 841 59 441 206 
L 441 856 
Q 825 641 1194 531 
Q 1563 422 1919 422 
Q 2459 422 2753 634 
Q 3047 847 3047 1241 
Q 3047 1584 2836 1778 
Q 2625 1972 2144 2069 
L 1759 2144 
Q 1053 2284 737 2584 
Q 422 2884 422 3419 
Q 422 4038 858 4394 
Q 1294 4750 2059 4750 
Q 2388 4750 2728 4690 
Q 3069 4631 3425 4513 
z
" transform="scale(0.015625)"/>
      </defs>
      <use xlink:href="#DejaVuSans-53"/>
      <use xlink:href="#DejaVuSans-61" x="63.476562"/>
      <use xlink:href="#DejaVuSans-6e" x="124.755859"/>
      <use xlink:href="#DejaVuSans-63" x="188.134766"/>
      <use xlink:href="#DejaVuSans-68" x="243.115234"/>
      <use xlink:href="#DejaVuSans-65" x="306.494141"/>
      <use xlink:href="#DejaVuSans-7a" x="368.017578"/>
      <use xlink:href="#DejaVuSans-20" x="420.507812"/>
      <use xlink:href="#DejaVuSans-63" x="452.294922"/>
      <use xlink:href="#DejaVuSans-6f" x="507.275391"/>
      <use xlink:href="#DejaVuSans-6d" x="568.457031"/>
      <use xlink:href="#DejaVuSans-70" x="665.869141"/>
      <use xlink:href="#DejaVuSans-65" x="729.345703"/>
      <use xlink:href="#DejaVuSans-6e" x="790.869141"/>
      <use xlink:href="#DejaVuSans-73" x="854.248047"/>
      <use xlink:href="#DejaVuSans-61" x="906.347656"/>
      <use xlink:href="#DejaVuSans-74" x="967.626953"/>
      <use xlink:href="#DejaVuSans-69" x="1006.835938"/>
      <use xlink:href="#DejaVuSans-6f" x="1034.619141"/>
      <use xlink:href="#DejaVuSans-6e" x="1095.800781"/>
     </g>
    </g>
    <g id="line2d_18">
     <path d="M 733.9725 248.812838 
L 763.9725 248.812838 
L 793.9725 248.812838 
" style="fill: none; stroke: #808000; stroke-width: 1.5; stroke-linecap: square"/>
    </g>
    <g id="text_16">
     <!-- Nobahari compensation -->
     <g transform="translate(817.9725 259.312838)scale(0.3 -0.3)">
      <defs>
       <path id="DejaVuSans-4e" d="M 628 4666 
L 1478 4666 
L 3547 763 
L 3547 4666 
L 4159 4666 
L 4159 0 
L 3309 0 
L 1241 3903 
L 1241 0 
L 628 0 
L 628 4666 
z
" transform="scale(0.015625)"/>
       <path id="DejaVuSans-62" d="M 3116 1747 
Q 3116 2381 2855 2742 
Q 2594 3103 2138 3103 
Q 1681 3103 1420 2742 
Q 1159 2381 1159 1747 
Q 1159 1113 1420 752 
Q 1681 391 2138 391 
Q 2594 391 2855 752 
Q 3116 1113 3116 1747 
z
M 1159 2969 
Q 1341 3281 1617 3432 
Q 1894 3584 2278 3584 
Q 2916 3584 3314 3078 
Q 3713 2572 3713 1747 
Q 3713 922 3314 415 
Q 2916 -91 2278 -91 
Q 1894 -91 1617 61 
Q 1341 213 1159 525 
L 1159 0 
L 581 0 
L 581 4863 
L 1159 4863 
L 1159 2969 
z
" transform="scale(0.015625)"/>
       <path id="DejaVuSans-72" d="M 2631 2963 
Q 2534 3019 2420 3045 
Q 2306 3072 2169 3072 
Q 1681 3072 1420 2755 
Q 1159 2438 1159 1844 
L 1159 0 
L 581 0 
L 581 3500 
L 1159 3500 
L 1159 2956 
Q 1341 3275 1631 3429 
Q 1922 3584 2338 3584 
Q 2397 3584 2469 3576 
Q 2541 3569 2628 3553 
L 2631 2963 
z
" transform="scale(0.015625)"/>
      </defs>
      <use xlink:href="#DejaVuSans-4e"/>
      <use xlink:href="#DejaVuSans-6f" x="74.804688"/>
      <use xlink:href="#DejaVuSans-62" x="135.986328"/>
      <use xlink:href="#DejaVuSans-61" x="199.462891"/>
      <use xlink:href="#DejaVuSans-68" x="260.742188"/>
      <use xlink:href="#DejaVuSans-61" x="324.121094"/>
      <use xlink:href="#DejaVuSans-72" x="385.400391"/>
      <use xlink:href="#DejaVuSans-69" x="426.513672"/>
      <use xlink:href="#DejaVuSans-20" x="454.296875"/>
      <use xlink:href="#DejaVuSans-63" x="486.083984"/>
      <use xlink:href="#DejaVuSans-6f" x="541.064453"/>
      <use xlink:href="#DejaVuSans-6d" x="602.246094"/>
      <use xlink:href="#DejaVuSans-70" x="699.658203"/>
      <use xlink:href="#DejaVuSans-65" x="763.134766"/>
      <use xlink:href="#DejaVuSans-6e" x="824.658203"/>
      <use xlink:href="#DejaVuSans-73" x="888.037109"/>
      <use xlink:href="#DejaVuSans-61" x="940.136719"/>
      <use xlink:href="#DejaVuSans-74" x="1001.416016"/>
      <use xlink:href="#DejaVuSans-69" x="1040.625"/>
      <use xlink:href="#DejaVuSans-6f" x="1068.408203"/>
      <use xlink:href="#DejaVuSans-6e" x="1129.589844"/>
     </g>
    </g>
   </g>
  </g>
 </g>
 <defs>
  <clipPath id="pfd8a589967">
   <rect x="172.8" y="77.4144" width="1071.36" height="496.7424"/>
  </clipPath>
 </defs>
</svg>
